<?xml version="1.0" encoding="UTF-8"?>
<svg viewBox="0 0 640 480" xmlns="http://www.w3.org/2000/svg">
 <defs>
  <filter id="b">
   <feGaussianBlur stdDeviation=".8233"/>
  </filter>
  <filter id="ac" x="-.04342" y="-.10772" width="1.0868" height="1.2154">
   <feGaussianBlur stdDeviation=".8233"/>
  </filter>
  <filter id="g" x="-.10465" y="-.06158" width="1.2093" height="1.1232">
   <feGaussianBlur stdDeviation=".8233"/>
  </filter>
  <filter id="t" x="-.05396" y="-.12459" width="1.1079" height="1.2492">
   <feGaussianBlur stdDeviation=".8233"/>
  </filter>
  <filter id="ab" x="-.12616" y="-.05476" width="1.2523" height="1.1095">
   <feGaussianBlur stdDeviation=".8233"/>
  </filter>
  <filter id="m" x="-.05934" y="-.1086" width="1.1187" height="1.2172">
   <feGaussianBlur stdDeviation=".8233"/>
  </filter>
  <filter id="f" x="-.12005" y="-.056" width="1.2401" height="1.112">
   <feGaussianBlur stdDeviation=".8233"/>
  </filter>
  <filter id="s" x="-.05277" y="-.13092" width="1.1055" height="1.2618">
   <feGaussianBlur stdDeviation=".8233"/>
  </filter>
  <filter id="r" x="-.11988" y="-.05741" width="1.2398" height="1.1148">
   <feGaussianBlur stdDeviation=".8233"/>
  </filter>
  <filter id="aa" x="-.05533" y="-.12441" width="1.1106" height="1.2488">
   <feGaussianBlur stdDeviation=".8233"/>
  </filter>
  <filter id="q" x="-.10292" y="-.07002" width="1.2058" height="1.14">
   <feGaussianBlur stdDeviation=".8233"/>
  </filter>
  <filter id="l" x="-.11274" y="-.06634" width="1.2255" height="1.1327">
   <feGaussianBlur stdDeviation=".8233"/>
  </filter>
  <filter id="p" x="-.05813" y="-.13423" width="1.1163" height="1.2684">
   <feGaussianBlur stdDeviation=".8233"/>
  </filter>
  <filter id="z" x="-.06393" y="-.117" width="1.1278" height="1.234">
   <feGaussianBlur stdDeviation=".8233"/>
  </filter>
  <filter id="y" x="-.13592" y="-.059" width="1.2718" height="1.118">
   <feGaussianBlur stdDeviation=".8233"/>
  </filter>
  <filter id="o" x="-.05961" y="-.13403" width="1.1192" height="1.2681">
   <feGaussianBlur stdDeviation=".8233"/>
  </filter>
  <filter id="d" x="-.14107" y="-.0658" width="1.2821" height="1.1316">
   <feGaussianBlur stdDeviation=".8233"/>
  </filter>
  <filter id="k" x="-.06201" y="-.15384" width="1.124" height="1.3077">
   <feGaussianBlur stdDeviation=".8233"/>
  </filter>
  <filter id="n" x="-.14086" y="-.06746" width="1.2817" height="1.1349">
   <feGaussianBlur stdDeviation=".8233"/>
  </filter>
  <filter id="j" x="-.06972" y="-.1276" width="1.1394" height="1.2552">
   <feGaussianBlur stdDeviation=".8233"/>
  </filter>
  <filter id="c" x="-.11225" y="-.07636" width="1.2245" height="1.1527">
   <feGaussianBlur stdDeviation=".8233"/>
  </filter>
  <filter id="x" x="-.12296" y="-.07235" width="1.2459" height="1.1447">
   <feGaussianBlur stdDeviation=".8233"/>
  </filter>
  <filter id="i" x="-.0634" y="-.14639" width="1.1268" height="1.2928">
   <feGaussianBlur stdDeviation=".8233"/>
  </filter>
  <filter id="e" x="-.06501" y="-.14618" width="1.13" height="1.2924">
   <feGaussianBlur stdDeviation=".8233"/>
  </filter>
  <filter id="h" x="-.14824" y="-.06435" width="1.2965" height="1.1287">
   <feGaussianBlur stdDeviation=".8233"/>
  </filter>
  <filter id="w" x="-.07359" y="-.11649" width="1.1472" height="1.233">
   <feGaussianBlur stdDeviation=".8233"/>
  </filter>
  <filter id="v" x="-.06972" y="-.12761" width="1.1394" height="1.2552">
   <feGaussianBlur stdDeviation=".8233"/>
  </filter>
  <linearGradient id="a" x1="288.42" x2="312.15" y1="43.72" y2="233.57" gradientUnits="userSpaceOnUse">
   <stop stop-color="#9ade00" offset="0"/>
   <stop stop-color="#009100" offset="1"/>
  </linearGradient>
  <linearGradient id="u" x1="290.24" x2="293.9" y1="450.79" y2="313.89" gradientUnits="userSpaceOnUse">
   <stop stop-color="#804d00" offset="0"/>
   <stop stop-color="#b88100" offset="1"/>
  </linearGradient>
 </defs>
 <g transform="matrix(1.1338 0 0 1.1211 -26.749 -41.77)" stroke="#000">
  <path d="m180.22 264.43c-23.028-16.987-32.85-4.1356-45.51 2.0484 11.863 4.7894 28.495 15.976 45.51-2.0484z" fill="#0e232e" filter="url(#ac)" stroke-width=".16768"/>
  <path d="m183.35 256.19c3.7524-27.711-12.708-29.482-24.596-36.954 1.6271 12.294-0.1105 31.768 24.596 36.954z" fill="#0e232e" filter="url(#b)" stroke-width=".16768"/>
  <path d="m190.57 277.08c-28.748 3.6794-26.263 19.459-30.677 32.458 11.903-4.6964 31.872-8.1192 30.677-32.458z" fill="#0e232e" filter="url(#b)" stroke-width=".16768"/>
  <path d="m219.16 218.42c3.0873-22.799-10.456-24.256-20.236-30.404 1.3387 10.115-0.0909 26.136 20.236 30.404z" fill="#0e232e" filter="url(#b)" stroke-width=".13796"/>
  <path d="m226.54 217.18c22.034-8.823 16.571-20.853 17.207-32.089-8.4213 6.1747-23.535 12.992-17.207 32.089z" fill="#0e232e" filter="url(#g)" stroke-width=".13796"/>
  <path d="m214.07 230.73c-14.547-18.225-25.192-10.027-36.62-7.7104 8.369 6.2403 19.115 18.543 36.62 7.7104z" fill="#0e232e" filter="url(#t)" stroke-width=".13796"/>
  <path d="m274.73 227.34c3.0873-22.799-10.456-24.256-20.236-30.404 1.3387 10.115-0.0909 26.136 20.236 30.404z" fill="#0e232e" filter="url(#b)" stroke-width=".13796"/>
  <path d="m282.12 226.1c22.034-8.823 16.571-20.853 17.207-32.089-8.4213 6.1747-23.535 12.992-17.207 32.089z" fill="#0e232e" filter="url(#g)" stroke-width=".13796"/>
  <path d="m269.64 239.65c-14.547-18.225-25.192-10.027-36.62-7.7104 8.369 6.2403 19.115 18.543 36.62 7.7104z" fill="#0e232e" filter="url(#t)" stroke-width=".13796"/>
  <path d="m338 233.86c14.504-18.257 3.531-26.044-1.7489-36.08-4.0891 9.4048-13.64 22.591 1.7489 36.08z" fill="#0e232e" filter="url(#ab)" stroke-width=".13796"/>
  <path d="m345.04 236.34c23.66 2.975 25.172-10.075 31.552-19.5-10.497 1.29-27.123-0.0876-31.552 19.5z" fill="#0e232e" filter="url(#b)" stroke-width=".13796"/>
  <path d="m327.2 242.06c-3.1415-22.792-16.614-20.822-27.713-24.321 4.0099 9.4365 6.9323 25.269 27.713 24.321z" fill="#0e232e" filter="url(#b)" stroke-width=".13796"/>
  <path d="m403.08 261.7c23.66 2.975 25.172-10.075 31.552-19.5-10.497 1.29-27.123-0.0876-31.552 19.5z" fill="#0e232e" filter="url(#b)" stroke-width=".13796"/>
  <path d="m404.37 268.81c9.1562 21.232 21.641 15.969 33.301 16.581-6.4078-8.1149-13.483-22.679-33.301-16.581z" fill="#0e232e" filter="url(#m)" stroke-width=".13796"/>
  <path d="m390.31 256.79c18.913-14.018 10.406-24.276 8.0015-35.287-6.4759 8.0646-19.243 18.419-8.0015 35.287z" fill="#0e232e" filter="url(#f)" stroke-width=".13796"/>
  <path d="m378.38 211.12c23.66 2.975 25.172-10.075 31.552-19.5-10.497 1.29-27.123-0.0876-31.552 19.5z" fill="#0e232e" filter="url(#b)" stroke-width=".13796"/>
  <path d="m379.67 218.24c9.1562 21.232 21.641 15.969 33.301 16.581-6.4078-8.1149-13.483-22.679-33.301-16.581z" fill="#0e232e" filter="url(#m)" stroke-width=".13796"/>
  <path d="m365.61 206.21c18.913-14.018 10.406-24.276 8.0015-35.287-6.4759 8.0646-19.243 18.419-8.0015 35.287z" fill="#0e232e" filter="url(#f)" stroke-width=".13796"/>
  <path d="m307.44 191.62c22.034-8.823 16.571-20.853 17.207-32.089-8.4212 6.1746-23.535 12.992-17.207 32.089z" fill="#0e232e" filter="url(#g)" stroke-width=".13796"/>
  <path d="m312.24 197.16c18.946 13.976 27.027 3.4026 37.443-1.6853-9.76-3.9404-23.444-13.144-37.443 1.6853z" fill="#0e232e" filter="url(#s)" stroke-width=".13796"/>
  <path d="m293.82 193.53c9.1056-21.252-3.5844-26.037-11.38-34.415-1.4238 10.104-7.1078 25.223 11.38 34.415z" fill="#0e232e" filter="url(#r)" stroke-width=".13796"/>
  <path d="m250.83 183.69c22.034-8.823 16.571-20.853 17.207-32.089-8.4212 6.1746-23.535 12.992-17.207 32.089z" fill="#0e232e" filter="url(#g)" stroke-width=".13796"/>
  <path d="m255.64 189.23c18.946 13.976 27.027 3.4026 37.443-1.6853-9.76-3.9404-23.444-13.144-37.443 1.6853z" fill="#0e232e" filter="url(#s)" stroke-width=".13796"/>
  <path d="m237.22 185.59c9.1056-21.252-3.5844-26.037-11.38-34.415-1.4238 10.104-7.1078 25.223 11.38 34.415z" fill="#0e232e" filter="url(#r)" stroke-width=".13796"/>
  <path d="m331.5 159.07c23.66 2.975 25.172-10.075 31.552-19.5-10.497 1.29-27.123-0.0876-31.552 19.5z" fill="#0e232e" filter="url(#b)" stroke-width=".13796"/>
  <path d="m332.79 166.18c9.1562 21.232 21.641 15.969 33.301 16.581-6.4078-8.1149-13.483-22.679-33.301-16.581z" fill="#0e232e" filter="url(#m)" stroke-width=".13796"/>
  <path d="m318.73 154.16c18.913-14.018 10.406-24.276 8.0015-35.287-6.4759 8.0646-19.243 18.419-8.0015 35.287z" fill="#0e232e" filter="url(#f)" stroke-width=".13796"/>
  <path d="m272.89 147.49c18.913-14.018 10.406-24.276 8.0015-35.287-6.4758 8.0645-19.243 18.419-8.0015 35.287z" fill="#0e232e" filter="url(#f)" stroke-width=".13796"/>
  <path d="m279.02 151.64c22.054 8.7744 27.02-3.454 35.714-10.966-10.486-1.372-26.176-6.8492-35.714 10.966z" fill="#0e232e" filter="url(#aa)" stroke-width=".13796"/>
  <path d="m260.26 152.72c3.0873-22.799-10.456-24.256-20.236-30.404 1.3387 10.115-0.0909 26.137 20.236 30.404z" fill="#0e232e" filter="url(#b)" stroke-width=".13796"/>
  <path d="m219.02 145.58c2.8656-21.161-9.7047-22.514-18.783-28.22 1.2425 9.3885-0.0844 24.259 18.783 28.22z" fill="#0e232e" filter="url(#q)" stroke-width=".12805"/>
  <path d="m225.87 144.43c20.451-8.1894 15.381-19.356 15.971-29.785-7.8165 5.7312-21.845 12.059-15.971 29.785z" fill="#0e232e" filter="url(#l)" stroke-width=".12805"/>
  <path d="m214.29 157.01c-13.502-16.916-23.383-9.3071-33.99-7.1567 7.768 5.7921 17.742 17.211 33.99 7.1567z" fill="#0e232e" filter="url(#p)" stroke-width=".12805"/>
  <path d="m180.94 194.18c2.8656-21.161-9.7047-22.514-18.783-28.22 1.2425 9.3885-0.0844 24.259 18.783 28.22z" fill="#0e232e" filter="url(#q)" stroke-width=".12805"/>
  <path d="m187.79 193.03c20.451-8.1894 15.381-19.356 15.971-29.785-7.8165 5.7312-21.845 12.059-15.971 29.785z" fill="#0e232e" filter="url(#l)" stroke-width=".12805"/>
  <path d="m176.21 205.6c-13.502-16.916-23.383-9.3071-33.99-7.1567 7.768 5.7921 17.742 17.211 33.99 7.1567z" fill="#0e232e" filter="url(#p)" stroke-width=".12805"/>
  <path d="m131.71 262.47c-8.4986-19.707-20.086-14.822-30.909-15.39 5.9476 7.532 12.515 21.05 30.909 15.39z" fill="#0e232e" filter="url(#z)" stroke-width=".12805"/>
  <path d="m137.04 258.17c13.462-16.946 3.2775-24.173-1.6233-33.489-3.7955 8.7295-12.661 20.969 1.6233 33.489z" fill="#0e232e" filter="url(#y)" stroke-width=".12805"/>
  <path d="m133.54 274.64c-20.471-8.1442-25.08 3.206-33.149 10.179 9.7327 1.2734 24.296 6.3573 33.149-10.179z" fill="#0e232e" filter="url(#o)" stroke-width=".12805"/>
  <path d="m156.49 305.73c-20.471-8.1442-25.08 3.206-33.149 10.179 9.7326 1.2734 24.296 6.3573 33.149-10.179z" fill="#0e232e" filter="url(#o)" stroke-width=".12805"/>
  <path d="m157.11 299.06c-2.9159-21.155-15.421-19.326-25.722-22.574 3.7219 8.7588 6.4344 23.454 25.722 22.574z" fill="#0e232e" filter="url(#b)" stroke-width=".12805"/>
  <path d="m166.72 313.09c-20.451 8.1894-15.381 19.356-15.971 29.785 7.8165-5.7312 21.845-12.059 15.971-29.785z" fill="#0e232e" filter="url(#l)" stroke-width=".12805"/>
  <path d="m141.46 194.27c-2.6735-19.397-14.14-17.72-23.585-20.698 3.4126 8.0309 5.8996 21.505 23.585 20.698z" fill="#0e232e" filter="url(#b)" stroke-width=".11741"/>
  <path d="m147.24 191.69c16.096-11.93 8.8558-20.66 6.8097-30.031-5.5113 6.8634-16.377 15.676-6.8097 30.031z" fill="#0e232e" filter="url(#d)" stroke-width=".11741"/>
  <path d="m140.08 205.47c-16.124-11.894-23.001-2.8957-31.866 1.4343 8.3062 3.3535 19.952 11.186 31.866-1.4343z" fill="#0e232e" filter="url(#k)" stroke-width=".11741"/>
  <path d="m153.01 157.78c7.7494-18.086-3.0505-22.159-9.6851-29.289-1.2117 8.5991-6.0491 21.466 9.6851 29.289z" fill="#0e232e" filter="url(#n)" stroke-width=".11741"/>
  <path d="m159.36 158.33c20.129-2.5763 18.389-13.625 21.48-22.727-8.3342 3.2884-22.317 5.6851-21.48 22.727z" fill="#0e232e" filter="url(#b)" stroke-width=".11741"/>
  <path d="m146 166.82c-7.7924-18.069-18.417-13.59-28.341-14.111 5.4533 6.9062 11.475 19.301 28.341 14.111z" fill="#0e232e" filter="url(#j)" stroke-width=".11741"/>
  <path d="m201.67 113.5c2.6275-19.403-8.8982-20.643-17.222-25.875 1.1393 8.6083-0.0773 22.243 17.222 25.875z" fill="#0e232e" filter="url(#c)" stroke-width=".11741"/>
  <path d="m207.96 112.44c18.752-7.5088 14.103-17.747 14.644-27.309-7.167 5.255-20.029 11.057-14.644 27.309z" fill="#0e232e" filter="url(#x)" stroke-width=".11741"/>
  <path d="m197.34 123.98c-12.38-15.51-21.44-8.5336-31.165-6.562 7.1224 5.3108 16.268 15.781 31.165 6.562z" fill="#0e232e" filter="url(#i)" stroke-width=".11741"/>
  <path d="m282.95 110.65c16.096-11.93 8.8559-20.66 6.8097-30.031-5.5112 6.8633-16.377 15.676-6.8097 30.031z" fill="#0e232e" filter="url(#d)" stroke-width=".11741"/>
  <path d="m288.17 114.18c18.769 7.4674 22.995-2.9395 30.395-9.3327-8.9239-1.1676-22.277-5.829-30.395 9.3327z" fill="#0e232e" filter="url(#e)" stroke-width=".11741"/>
  <path d="m272.2 115.1c2.6274-19.403-8.8982-20.643-17.222-25.875 1.1392 8.6084-0.0773 22.243 17.222 25.875z" fill="#0e232e" filter="url(#c)" stroke-width=".11741"/>
  <path d="m343.19 116.59c20.129-2.5762 18.389-13.625 21.48-22.727-8.3341 3.2884-22.317 5.685-21.48 22.727z" fill="#0e232e" filter="url(#b)" stroke-width=".11741"/>
  <path d="m345.87 122.17c12.38 15.51 21.44 8.5336 31.165 6.562-7.1225-5.3108-16.268-15.781-31.165-6.562z" fill="#0e232e" filter="url(#i)" stroke-width=".11741"/>
  <path d="m331.56 115.27c12.343-15.538 3.005-22.164-1.4884-30.706-3.4801 8.004-11.609 19.226 1.4884 30.706z" fill="#0e232e" filter="url(#h)" stroke-width=".11741"/>
  <path d="m386.24 167.3c20.129-2.5762 18.389-13.625 21.48-22.727-8.3341 3.2884-22.317 5.685-21.48 22.727z" fill="#0e232e" filter="url(#b)" stroke-width=".11741"/>
  <path d="m388.92 172.87c12.38 15.51 21.44 8.5336 31.165 6.562-7.1225-5.3108-16.268-15.781-31.165-6.562z" fill="#0e232e" filter="url(#i)" stroke-width=".11741"/>
  <path d="m374.61 165.97c12.343-15.538 3.005-22.164-1.4884-30.706-3.4801 8.004-11.609 19.226 1.4884 30.706z" fill="#0e232e" filter="url(#h)" stroke-width=".11741"/>
  <path d="m428.25 178.92c16.124 11.894 23.001 2.8957 31.865-1.4343-8.3062-3.3534-19.952-11.186-31.865 1.4343z" fill="#0e232e" filter="url(#k)" stroke-width=".11741"/>
  <path d="m426.06 184.69c-2.6274 19.403 8.8982 20.643 17.222 25.875-1.1393-8.6084 0.0773-22.243-17.222-25.875z" fill="#0e232e" filter="url(#c)" stroke-width=".11741"/>
  <path d="m421.01 170.06c20.129-2.5763 18.389-13.625 21.48-22.727-8.3342 3.2884-22.317 5.685-21.48 22.727z" fill="#0e232e" filter="url(#b)" stroke-width=".11741"/>
  <path d="m444.32 238.1c20.135 2.5319 21.422-8.5745 26.852-16.595-8.9334 1.0978-23.083-0.0745-26.852 16.595z" fill="#0e232e" filter="url(#w)" stroke-width=".11741"/>
  <path d="m445.42 244.16c7.7924 18.069 18.417 13.59 28.341 14.111-5.4534-6.9062-11.475-19.301-28.341-14.111z" fill="#0e232e" filter="url(#j)" stroke-width=".11741"/>
  <path d="m433.45 233.92c16.096-11.93 8.8558-20.66 6.8097-30.031-5.5113 6.8633-16.377 15.676-6.8097 30.031z" fill="#0e232e" filter="url(#d)" stroke-width=".11741"/>
  <path d="m464.4 175.05c16.124 11.894 23.001 2.8957 31.865-1.4343-8.3062-3.3534-19.952-11.186-31.865 1.4343z" fill="#0e232e" filter="url(#k)" stroke-width=".11741"/>
  <path d="m462.2 180.82c-2.6274 19.403 8.8982 20.643 17.222 25.875-1.1393-8.6084 0.0773-22.243-17.222-25.875z" fill="#0e232e" filter="url(#c)" stroke-width=".11741"/>
  <path d="m457.15 166.19c20.129-2.5763 18.389-13.625 21.48-22.727-8.3342 3.2884-22.317 5.685-21.48 22.727z" fill="#0e232e" filter="url(#b)" stroke-width=".11741"/>
  <path d="m438.15 138.89c16.096-11.93 8.8558-20.66 6.8097-30.031-5.5113 6.8633-16.377 15.676-6.8097 30.031z" fill="#0e232e" filter="url(#d)" stroke-width=".11741"/>
  <path d="m443.37 142.42c18.769 7.4674 22.995-2.9395 30.395-9.3327-8.9239-1.1676-22.277-5.829-30.395 9.3327z" fill="#0e232e" filter="url(#e)" stroke-width=".11741"/>
  <path d="m427.4 143.34c2.6274-19.403-8.8982-20.643-17.222-25.875 1.1392 8.6084-0.0773 22.243 17.222 25.875z" fill="#0e232e" filter="url(#c)" stroke-width=".11741"/>
  <path d="m399.88 109.69c16.096-11.93 8.8558-20.66 6.8097-30.031-5.5113 6.8633-16.377 15.676-6.8097 30.031z" fill="#0e232e" filter="url(#d)" stroke-width=".11741"/>
  <path d="m405.1 113.23c18.769 7.4674 22.995-2.9395 30.395-9.3327-8.9239-1.1676-22.277-5.829-30.395 9.3327z" fill="#0e232e" filter="url(#e)" stroke-width=".11741"/>
  <path d="m389.13 114.15c2.6274-19.403-8.8982-20.643-17.222-25.875 1.1393 8.6084-0.0773 22.243 17.222 25.875z" fill="#0e232e" filter="url(#c)" stroke-width=".11741"/>
  <path d="m336.1 80.498c16.096-11.93 8.8558-20.66 6.8097-30.031-5.5113 6.8633-16.377 15.676-6.8097 30.031z" fill="#0e232e" filter="url(#d)" stroke-width=".11741"/>
  <path d="m341.31 84.032c18.769 7.4674 22.995-2.9395 30.395-9.3327-8.9239-1.1676-22.277-5.829-30.395 9.3327z" fill="#0e232e" filter="url(#e)" stroke-width=".11741"/>
  <path d="m325.34 84.951c2.6274-19.403-8.8982-20.643-17.222-25.875 1.1392 8.6084-0.0773 22.243 17.222 25.875z" fill="#0e232e" filter="url(#c)" stroke-width=".11741"/>
  <path d="m254.92 80.647c7.7494-18.086-3.0505-22.159-9.6851-29.289-1.2117 8.5992-6.0491 21.466 9.6851 29.289z" fill="#0e232e" filter="url(#n)" stroke-width=".11741"/>
  <path d="m261.27 81.195c20.13-2.5763 18.389-13.625 21.48-22.727-8.3342 3.2884-22.317 5.685-21.48 22.727z" fill="#0e232e" filter="url(#b)" stroke-width=".11741"/>
  <path d="m247.92 89.685c-7.7923-18.069-18.417-13.59-28.341-14.111 5.4533 6.9062 11.475 19.301 28.341 14.111z" fill="#0e232e" filter="url(#j)" stroke-width=".11741"/>
  <path d="m440.84 285.99c7.7923 18.069 18.417 13.59 28.341 14.111-5.4533-6.9061-11.475-19.301-28.341-14.111z" fill="#0e232e" filter="url(#v)" stroke-width=".11741"/>
  <path d="m435.95 289.93c-12.343 15.538-3.0051 22.164 1.4884 30.706 3.4801-8.004 11.609-19.226-1.4884-30.706z" fill="#0e232e" filter="url(#h)" stroke-width=".11741"/>
  <path d="m439.16 274.83c18.769 7.4674 22.995-2.9395 30.395-9.3327-8.9238-1.1676-22.277-5.829-30.395 9.3327z" fill="#0e232e" filter="url(#e)" stroke-width=".11741"/>
  <path d="m257.66 456.18c52.981 10.817 39.822-3.9028 92.86 2.2866l-5.1933-4.5732s-8.2832-59.439-3.0899-108.22 57.126-73.933 57.126-73.933-39.321 19.817-53.417 38.872-17.806 6.0976-17.806 6.0976-16.322-7.622-2.2257-41.921 11.128-38.872 11.128-38.872-1.4838 7.622-8.1609 20.579-17.806 55.641-17.806 55.641c-4.0623-33.362-19.737-55.225-31.902-84.604l17.806 71.647c-14.997-24.601-24.573-50.714-80.867-54.116 42.395 6.5796 65.506 15.502 73.448 67.074-36.904-5.101-43.211-75.359-99.415-48.781 87.446-35.068 105.88 201.46 67.513 192.82z" fill="#804d00" stroke-width=".58258"/>
  <path d="m180.22 264.43c-23.028-16.987-32.85-4.1356-45.51 2.0484 11.863 4.7894 28.495 15.976 45.51-2.0484z" fill="url(#a)" stroke-width=".16768"/>
  <path d="m183.35 256.19c3.7524-27.711-12.708-29.482-24.596-36.954 1.6271 12.294-0.1105 31.768 24.596 36.954z" fill="url(#a)" stroke-width=".16768"/>
  <path d="m190.57 277.08c-28.748 3.6794-26.263 19.459-30.677 32.458 11.903-4.6964 31.872-8.1192 30.677-32.458z" fill="url(#a)" stroke-width=".16768"/>
  <path d="m219.16 218.42c3.0873-22.799-10.456-24.256-20.236-30.404 1.3387 10.115-0.0909 26.136 20.236 30.404z" fill="url(#a)" stroke-width=".13796"/>
  <path d="m226.54 217.18c22.034-8.823 16.571-20.853 17.207-32.089-8.4213 6.1747-23.535 12.992-17.207 32.089z" fill="url(#a)" stroke-width=".13796"/>
  <path d="m214.07 230.73c-14.547-18.225-25.192-10.027-36.62-7.7104 8.369 6.2403 19.115 18.543 36.62 7.7104z" fill="url(#a)" stroke-width=".13796"/>
  <path d="m274.73 227.34c3.0873-22.799-10.456-24.256-20.236-30.404 1.3387 10.115-0.0909 26.136 20.236 30.404z" fill="url(#a)" stroke-width=".13796"/>
  <path d="m282.12 226.1c22.034-8.823 16.571-20.853 17.207-32.089-8.4213 6.1747-23.535 12.992-17.207 32.089z" fill="url(#a)" stroke-width=".13796"/>
  <path d="m269.64 239.65c-14.547-18.225-25.192-10.027-36.62-7.7104 8.369 6.2403 19.115 18.543 36.62 7.7104z" fill="url(#a)" stroke-width=".13796"/>
  <path d="m338 233.86c14.504-18.257 3.531-26.044-1.7489-36.08-4.0891 9.4048-13.64 22.591 1.7489 36.08z" fill="url(#a)" stroke-width=".13796"/>
  <path d="m345.04 236.34c23.66 2.975 25.172-10.075 31.552-19.5-10.497 1.29-27.123-0.0876-31.552 19.5z" fill="url(#a)" stroke-width=".13796"/>
  <path d="m327.2 242.06c-3.1415-22.792-16.614-20.822-27.713-24.321 4.0099 9.4365 6.9323 25.269 27.713 24.321z" fill="url(#a)" stroke-width=".13796"/>
  <path d="m403.08 261.7c23.66 2.975 25.172-10.075 31.552-19.5-10.497 1.29-27.123-0.0876-31.552 19.5z" fill="url(#a)" stroke-width=".13796"/>
  <path d="m404.37 268.81c9.1562 21.232 21.641 15.969 33.301 16.581-6.4078-8.1149-13.483-22.679-33.301-16.581z" fill="url(#a)" stroke-width=".13796"/>
  <path d="m390.31 256.79c18.913-14.018 10.406-24.276 8.0015-35.287-6.4759 8.0646-19.243 18.419-8.0015 35.287z" fill="url(#a)" stroke-width=".13796"/>
  <path d="m378.38 211.12c23.66 2.975 25.172-10.075 31.552-19.5-10.497 1.29-27.123-0.0876-31.552 19.5z" fill="url(#a)" stroke-width=".13796"/>
  <path d="m379.67 218.24c9.1562 21.232 21.641 15.969 33.301 16.581-6.4078-8.1149-13.483-22.679-33.301-16.581z" fill="url(#a)" stroke-width=".13796"/>
  <path d="m365.61 206.21c18.913-14.018 10.406-24.276 8.0015-35.287-6.4759 8.0646-19.243 18.419-8.0015 35.287z" fill="url(#a)" stroke-width=".13796"/>
  <path d="m307.44 191.62c22.034-8.823 16.571-20.853 17.207-32.089-8.4212 6.1746-23.535 12.992-17.207 32.089z" fill="url(#a)" stroke-width=".13796"/>
  <path d="m312.24 197.16c18.946 13.976 27.027 3.4026 37.443-1.6853-9.76-3.9404-23.444-13.144-37.443 1.6853z" fill="url(#a)" stroke-width=".13796"/>
  <path d="m293.82 193.53c9.1056-21.252-3.5844-26.037-11.38-34.415-1.4238 10.104-7.1078 25.223 11.38 34.415z" fill="url(#a)" stroke-width=".13796"/>
  <path d="m250.83 183.69c22.034-8.823 16.571-20.853 17.207-32.089-8.4212 6.1746-23.535 12.992-17.207 32.089z" fill="url(#a)" stroke-width=".13796"/>
  <path d="m255.64 189.23c18.946 13.976 27.027 3.4026 37.443-1.6853-9.76-3.9404-23.444-13.144-37.443 1.6853z" fill="url(#a)" stroke-width=".13796"/>
  <path d="m237.22 185.59c9.1056-21.252-3.5844-26.037-11.38-34.415-1.4238 10.104-7.1078 25.223 11.38 34.415z" fill="url(#a)" stroke-width=".13796"/>
  <path d="m331.5 159.07c23.66 2.975 25.172-10.075 31.552-19.5-10.497 1.29-27.123-0.0876-31.552 19.5z" fill="url(#a)" stroke-width=".13796"/>
  <path d="m332.79 166.18c9.1562 21.232 21.641 15.969 33.301 16.581-6.4078-8.1149-13.483-22.679-33.301-16.581z" fill="url(#a)" stroke-width=".13796"/>
  <path d="m318.73 154.16c18.913-14.018 10.406-24.276 8.0015-35.287-6.4759 8.0646-19.243 18.419-8.0015 35.287z" fill="url(#a)" stroke-width=".13796"/>
  <path d="m272.89 147.49c18.913-14.018 10.406-24.276 8.0015-35.287-6.4758 8.0645-19.243 18.419-8.0015 35.287z" fill="url(#a)" stroke-width=".13796"/>
  <path d="m279.02 151.64c22.054 8.7744 27.02-3.454 35.714-10.966-10.486-1.372-26.176-6.8492-35.714 10.966z" fill="url(#a)" stroke-width=".13796"/>
  <path d="m260.26 152.72c3.0873-22.799-10.456-24.256-20.236-30.404 1.3387 10.115-0.0909 26.137 20.236 30.404z" fill="url(#a)" stroke-width=".13796"/>
  <path d="m219.02 145.58c2.8656-21.161-9.7047-22.514-18.783-28.22 1.2425 9.3885-0.0844 24.259 18.783 28.22z" fill="url(#a)" stroke-width=".12805"/>
  <path d="m225.87 144.43c20.451-8.1894 15.381-19.356 15.971-29.785-7.8165 5.7312-21.845 12.059-15.971 29.785z" fill="url(#a)" stroke-width=".12805"/>
  <path d="m214.29 157.01c-13.502-16.916-23.383-9.3071-33.99-7.1567 7.768 5.7921 17.742 17.211 33.99 7.1567z" fill="url(#a)" stroke-width=".12805"/>
  <path d="m180.94 194.18c2.8656-21.161-9.7047-22.514-18.783-28.22 1.2425 9.3885-0.0844 24.259 18.783 28.22z" fill="url(#a)" stroke-width=".12805"/>
  <path d="m187.79 193.03c20.451-8.1894 15.381-19.356 15.971-29.785-7.8165 5.7312-21.845 12.059-15.971 29.785z" fill="url(#a)" stroke-width=".12805"/>
  <path d="m176.21 205.6c-13.502-16.916-23.383-9.3071-33.99-7.1567 7.768 5.7921 17.742 17.211 33.99 7.1567z" fill="url(#a)" stroke-width=".12805"/>
  <path d="m131.71 262.47c-8.4986-19.707-20.086-14.822-30.909-15.39 5.9476 7.532 12.515 21.05 30.909 15.39z" fill="url(#a)" stroke-width=".12805"/>
  <path d="m137.04 258.17c13.462-16.946 3.2775-24.173-1.6233-33.489-3.7955 8.7295-12.661 20.969 1.6233 33.489z" fill="url(#a)" stroke-width=".12805"/>
  <path d="m133.54 274.64c-20.471-8.1442-25.08 3.206-33.149 10.179 9.7327 1.2734 24.296 6.3573 33.149-10.179z" fill="url(#a)" stroke-width=".12805"/>
  <path d="m156.49 305.73c-20.471-8.1442-25.08 3.206-33.149 10.179 9.7326 1.2734 24.296 6.3573 33.149-10.179z" fill="url(#a)" stroke-width=".12805"/>
  <path d="m157.11 299.06c-2.9159-21.155-15.421-19.326-25.722-22.574 3.7219 8.7588 6.4344 23.454 25.722 22.574z" fill="url(#a)" stroke-width=".12805"/>
  <path d="m166.72 313.09c-20.451 8.1894-15.381 19.356-15.971 29.785 7.8165-5.7312 21.845-12.059 15.971-29.785z" fill="url(#a)" stroke-width=".12805"/>
  <path d="m141.46 194.27c-2.6735-19.397-14.14-17.72-23.585-20.698 3.4126 8.0309 5.8996 21.505 23.585 20.698z" fill="url(#a)" stroke-width=".11741"/>
  <path d="m147.24 191.69c16.096-11.93 8.8558-20.66 6.8097-30.031-5.5113 6.8634-16.377 15.676-6.8097 30.031z" fill="url(#a)" stroke-width=".11741"/>
  <path d="m140.08 205.47c-16.124-11.894-23.001-2.8957-31.866 1.4343 8.3062 3.3535 19.952 11.186 31.866-1.4343z" fill="url(#a)" stroke-width=".11741"/>
  <path d="m153.01 157.78c7.7494-18.086-3.0505-22.159-9.6851-29.289-1.2117 8.5991-6.0491 21.466 9.6851 29.289z" fill="url(#a)" stroke-width=".11741"/>
  <path d="m159.36 158.33c20.129-2.5763 18.389-13.625 21.48-22.727-8.3342 3.2884-22.317 5.6851-21.48 22.727z" fill="url(#a)" stroke-width=".11741"/>
  <path d="m146 166.82c-7.7924-18.069-18.417-13.59-28.341-14.111 5.4533 6.9062 11.475 19.301 28.341 14.111z" fill="url(#a)" stroke-width=".11741"/>
  <path d="m201.67 113.5c2.6275-19.403-8.8982-20.643-17.222-25.875 1.1393 8.6083-0.0773 22.243 17.222 25.875z" fill="url(#a)" stroke-width=".11741"/>
  <path d="m207.96 112.44c18.752-7.5088 14.103-17.747 14.644-27.309-7.167 5.255-20.029 11.057-14.644 27.309z" fill="url(#a)" stroke-width=".11741"/>
  <path d="m197.34 123.98c-12.38-15.51-21.44-8.5336-31.165-6.562 7.1224 5.3108 16.268 15.781 31.165 6.562z" fill="url(#a)" stroke-width=".11741"/>
  <path d="m282.95 110.65c16.096-11.93 8.8559-20.66 6.8097-30.031-5.5112 6.8633-16.377 15.676-6.8097 30.031z" fill="url(#a)" stroke-width=".11741"/>
  <path d="m288.17 114.18c18.769 7.4674 22.995-2.9395 30.395-9.3327-8.9239-1.1676-22.277-5.829-30.395 9.3327z" fill="url(#a)" stroke-width=".11741"/>
  <path d="m272.2 115.1c2.6274-19.403-8.8982-20.643-17.222-25.875 1.1392 8.6084-0.0773 22.243 17.222 25.875z" fill="url(#a)" stroke-width=".11741"/>
  <path d="m343.19 116.59c20.129-2.5762 18.389-13.625 21.48-22.727-8.3341 3.2884-22.317 5.685-21.48 22.727z" fill="url(#a)" stroke-width=".11741"/>
  <path d="m345.87 122.17c12.38 15.51 21.44 8.5336 31.165 6.562-7.1225-5.3108-16.268-15.781-31.165-6.562z" fill="url(#a)" stroke-width=".11741"/>
  <path d="m331.56 115.27c12.343-15.538 3.005-22.164-1.4884-30.706-3.4801 8.004-11.609 19.226 1.4884 30.706z" fill="url(#a)" stroke-width=".11741"/>
  <path d="m386.24 167.3c20.129-2.5762 18.389-13.625 21.48-22.727-8.3341 3.2884-22.317 5.685-21.48 22.727z" fill="url(#a)" stroke-width=".11741"/>
  <path d="m388.92 172.87c12.38 15.51 21.44 8.5336 31.165 6.562-7.1225-5.3108-16.268-15.781-31.165-6.562z" fill="url(#a)" stroke-width=".11741"/>
  <path d="m374.61 165.97c12.343-15.538 3.005-22.164-1.4884-30.706-3.4801 8.004-11.609 19.226 1.4884 30.706z" fill="url(#a)" stroke-width=".11741"/>
  <path d="m428.25 178.92c16.124 11.894 23.001 2.8957 31.865-1.4343-8.3062-3.3534-19.952-11.186-31.865 1.4343z" fill="url(#a)" stroke-width=".11741"/>
  <path d="m426.06 184.69c-2.6274 19.403 8.8982 20.643 17.222 25.875-1.1393-8.6084 0.0773-22.243-17.222-25.875z" fill="url(#a)" stroke-width=".11741"/>
  <path d="m421.01 170.06c20.129-2.5763 18.389-13.625 21.48-22.727-8.3342 3.2884-22.317 5.685-21.48 22.727z" fill="url(#a)" stroke-width=".11741"/>
  <path d="m444.32 238.1c20.135 2.5319 21.422-8.5745 26.852-16.595-8.9334 1.0978-23.083-0.0745-26.852 16.595z" fill="url(#a)" stroke-width=".11741"/>
  <path d="m445.42 244.16c7.7924 18.069 18.417 13.59 28.341 14.111-5.4534-6.9062-11.475-19.301-28.341-14.111z" fill="url(#a)" stroke-width=".11741"/>
  <path d="m433.45 233.92c16.096-11.93 8.8558-20.66 6.8097-30.031-5.5113 6.8633-16.377 15.676-6.8097 30.031z" fill="url(#a)" stroke-width=".11741"/>
  <path d="m464.4 175.05c16.124 11.894 23.001 2.8957 31.865-1.4343-8.3062-3.3534-19.952-11.186-31.865 1.4343z" fill="url(#a)" stroke-width=".11741"/>
  <path d="m462.2 180.82c-2.6274 19.403 8.8982 20.643 17.222 25.875-1.1393-8.6084 0.0773-22.243-17.222-25.875z" fill="url(#a)" stroke-width=".11741"/>
  <path d="m457.15 166.19c20.129-2.5763 18.389-13.625 21.48-22.727-8.3342 3.2884-22.317 5.685-21.48 22.727z" fill="url(#a)" stroke-width=".11741"/>
  <path d="m438.15 138.89c16.096-11.93 8.8558-20.66 6.8097-30.031-5.5113 6.8633-16.377 15.676-6.8097 30.031z" fill="url(#a)" stroke-width=".11741"/>
  <path d="m443.37 142.42c18.769 7.4674 22.995-2.9395 30.395-9.3327-8.9239-1.1676-22.277-5.829-30.395 9.3327z" fill="url(#a)" stroke-width=".11741"/>
  <path d="m427.4 143.34c2.6274-19.403-8.8982-20.643-17.222-25.875 1.1392 8.6084-0.0773 22.243 17.222 25.875z" fill="url(#a)" stroke-width=".11741"/>
  <path d="m399.88 109.69c16.096-11.93 8.8558-20.66 6.8097-30.031-5.5113 6.8633-16.377 15.676-6.8097 30.031z" fill="url(#a)" stroke-width=".11741"/>
  <path d="m405.1 113.23c18.769 7.4674 22.995-2.9395 30.395-9.3327-8.9239-1.1676-22.277-5.829-30.395 9.3327z" fill="url(#a)" stroke-width=".11741"/>
  <path d="m389.13 114.15c2.6274-19.403-8.8982-20.643-17.222-25.875 1.1393 8.6084-0.0773 22.243 17.222 25.875z" fill="url(#a)" stroke-width=".11741"/>
  <path d="m336.1 80.498c16.096-11.93 8.8558-20.66 6.8097-30.031-5.5113 6.8633-16.377 15.676-6.8097 30.031z" fill="url(#a)" stroke-width=".11741"/>
  <path d="m341.31 84.032c18.769 7.4674 22.995-2.9395 30.395-9.3327-8.9239-1.1676-22.277-5.829-30.395 9.3327z" fill="url(#a)" stroke-width=".11741"/>
  <path d="m325.34 84.951c2.6274-19.403-8.8982-20.643-17.222-25.875 1.1392 8.6084-0.0773 22.243 17.222 25.875z" fill="url(#a)" stroke-width=".11741"/>
  <path d="m254.92 80.647c7.7494-18.086-3.0505-22.159-9.6851-29.289-1.2117 8.5992-6.0491 21.466 9.6851 29.289z" fill="url(#a)" stroke-width=".11741"/>
  <path d="m261.27 81.195c20.13-2.5763 18.389-13.625 21.48-22.727-8.3342 3.2884-22.317 5.685-21.48 22.727z" fill="url(#a)" stroke-width=".11741"/>
  <path d="m247.92 89.685c-7.7923-18.069-18.417-13.59-28.341-14.111 5.4533 6.9062 11.475 19.301 28.341 14.111z" fill="url(#a)" stroke-width=".11741"/>
  <path d="m440.84 285.99c7.7923 18.069 18.417 13.59 28.341 14.111-5.4533-6.9061-11.475-19.301-28.341-14.111z" fill="url(#a)" stroke-width=".11741"/>
  <path d="m435.95 289.93c-12.343 15.538-3.0051 22.164 1.4884 30.706 3.4801-8.004 11.609-19.226-1.4884-30.706z" fill="url(#a)" stroke-width=".11741"/>
  <path d="m439.16 274.83c18.769 7.4674 22.995-2.9395 30.395-9.3327-8.9238-1.1676-22.277-5.829-30.395 9.3327z" fill="url(#a)" stroke-width=".11741"/>
  <path d="m257.66 456.18c52.981 10.817 39.822-3.9028 92.86 2.2866l-5.1933-4.5732s-8.2832-59.439-3.0899-108.22 57.126-73.933 57.126-73.933-39.321 19.817-53.417 38.872-17.806 6.0976-17.806 6.0976-16.322-7.622-2.2257-41.921 11.128-38.872 11.128-38.872-1.4838 7.622-8.1609 20.579-17.806 55.641-17.806 55.641c-4.0623-33.362-19.737-55.225-31.902-84.604l17.806 71.647c-14.997-24.601-24.573-50.714-80.867-54.116 42.395 6.5796 65.506 15.502 73.448 67.074-36.904-5.101-43.211-75.359-99.415-48.781 87.446-35.068 105.88 201.46 67.513 192.82z" fill="url(#u)" stroke-width=".58258"/>
 </g>
</svg>
