<?xml version="1.0" encoding="UTF-8"?>
<svg viewBox="0 0 1006 993" xmlns="http://www.w3.org/2000/svg">
 <g fill-rule="evenodd">
  <path d="m936 323v-1l24 1q24 1 26 4t1 33q-1 29-3 31-2 3-32 3h-30l-1-1-1-1h-1v-1h-1v-5h6l2-1q1-1 4-4 4-3 4-31l1-27q1 0 1 0z" fill="#fcfdfc" stroke="#fcfdfc"/>
  <path d="m582 204v-1l1 1q1 0 1 2t1 3 1 1q1 0 2 0v2q0 1-2 6t-9 15l-6 10q0-1-1-1h-1v-2h-3v-1l-1-1v-2l1-1v-1l7-12q7-12 7-15 2-3 2-3z" fill="#191919" stroke="#191919"/>
  <path d="m730 219q34-1 37 1t7 8q4 5 4 36t-1 36q-1 4-6 8-4 4-39 5t-38-1q-4-2-7-7-3-4-3-11-2-7-2-27t2-29 6-14q5-4 40-5zm-27 45v-25h27l28 1t0 26q0 27-27 28h-28v-3q-1-3 0-27z" fill="#bce097" stroke="#bce097"/>
  <path d="m587 487h3v2q1 3 1 3h-1v1q-1 1-1 1h-1t-2 1q-1 1-36 2l-34 1q0-1-1-4v-2q1 0 1 0v-1h1l1-1h5q5-2 33-2t31-1z" fill="#0f0f0f" stroke="#0f0f0f"/>
  <path d="m371 584l1 1h-1q-1 0-1 7v7h1q1 1 1 1h-2v14q0 15-3 18-2 2-37 3t-38-2q-2-2-3-37-1-34 2-37 2-3 37-3 36 0 38 3 2 2 3 13 1 12 2 12z" fill="#1096c7" stroke="#1096c7"/>
  <path d="m247 484v-1h1v2h11l4 3q3 2 5 5t2 11v7h1v1h-1v11l1 1h-1v29q0 29-4 33-3 4-50 5t-50-1-4-4q0-1 0-47t3-49q3-4 43-4l39-1v-1z" fill="#bae096" stroke="#bae096"/>
  <path d="m101 364v-1l15 1q15 0 16 3 2 2 2 11v10h-7q-7 0-9-2-2 0-6-4-4-3-8-10l-3-6v-2z" fill="#fafcfb" stroke="#fafcfb"/>
  <path d="m661 511q34-1 38 1 3 2 7 8 4 5 4 36t0 34q-2 4-5 8-3 5-9 7-5 1-32 1-26 0-30 0-5 0-9-3-3-2-7-8-2-6-2-37t1-34q1-4 6-8 4-4 38-5zm2 13q33 0 34 2 1 1 1 32 0 30-1 32-2 2-33 3-32 1-33-1-1 0-3-5t-1-31q1-27 2-30 1-2 34-2z" fill="#bde19a" stroke="#bde19a"/>
  <path d="m919 326l2-4h7q7 0 7 1l-1 27q0 28-4 31-3 3-4 4l-2 1h-8v-28q0-29 3-32z" fill="#1196c6" stroke="#1196c6"/>
  <path d="m515 491h1v3q0 3 0 4-1 0-8 4l-7 2-1 1v-1h-1v-1l5-4q5-5 8-6 2-1 3-2z" fill="#2b2b2b" stroke="#2b2b2b"/>
  <path d="m680 108v46q0 1-1 4t-3 10q-4 6-9 11-6 5-39 5-33 1-34 0v-8q0-6-1-12l-1-6v-2q0-1-1-3t-5-12l-4-10v-2h-1q0-1-5-9-6-8-9-10-3-3-7-6l-4-2t-4-3-13-5l-9-3-1-1q-1-1 0-18 1-16 4-23 4-7 9-10 4-3 62-3t63 3q5 4 8 11t4 10q1 4 1 48z" fill="#fdfdfd" stroke="#fdfdfd"/>
  <path d="m554 315v-1h55v1h1v38h-2q-1-1-8-3-6-4-26-4l-20-2h-1v-14l1-15z" fill="#fbfcfc" stroke="#fbfcfc"/>
  <path d="m398 515q2-1 36 0 33 1 35 3 1 2 1 34t-3 34q-2 2-35 1t-35-3q-1-2-1-34t1-33q0-1 1-2z" fill="#bae096" stroke="#bae096"/>
  <path d="m60 337l32-1h7l19 1q19 1 24 5 6 4 10 9 4 6 5 11 1 6 2 16 1 9 1 10v3h-1v1h1v3h10v1h-11v31q-1 31-1 34t-4 11-11 12q-6 4-57 5-52 1-57-1t-9-5-7-9q-3-5-3-61t4-62 9-9q5-4 37-5zm4 27h29l3-1q4 0 4 1 0 2 1 2v-3l15 1q15 0 16 3 2 2 2 11v17h-5q0 1 3 1 2 0 2 30 0 31-2 34-2 2-48 3-47 1-49-2-3-3-3-46t1-47 31-4z" fill="#bbe097" stroke="#bbe097"/>
  <path d="m577 132h1v-1h1v1h2v1h1v-2l4 10q4 10 5 12t1 3v2h-2q-1 0-2-2-1 0-2 1l-1 1q-1 0-5-13l-4-13h1z" fill="#212121" stroke="#212121"/>
  <path d="m200 395h-40v-3h-1v-1h1v-3h35q35 0 37-2 3 0 8-5 4-5 7-11t3-54q0-47-1-55-2-8-15-8-14-1-15-2t-2-7l-1-7-50 1q-49 0-53 3-5 3-8 9-3 5-5 9 0 4-1 41v36h-7v-36q0-35 2-42t7-13q4-7 9-10t56-4l50-1 1-12q1-11 2-12 1 0 23 0 21 0 22 1 0 1 0 23 0 21-5 23-5 1-4 5t1 56q0 53-4 61t-9 12q-5 5-9 6t-34 2z" fill="#2ba1ce" stroke="#2ba1ce"/>
  <path d="m442 202l1 14q1 14 3 17 3 3 4 3t18 1h17v1h-4v32q-1 31-1 32t-3 4q-3 2-28 4-25 0-26 6l-1 6v-6q0-5-22-6-22-2-26-6l-3-4 1-44q0-45 3-48 3-2 5-4 2 0 32-1 29-1 30-1z" fill="#b9e096" stroke="#b9e096"/>
  <path d="m517 619v1l-1 1v1h1v1h-1v1h4t0 1q-1 1-10 5l-10 5v-2h-2v-2h1v-1l8-5q9-5 9-5 0-1 1-1z" fill="#292929" stroke="#292929"/>
  <path d="m444 384h1q1 0 1 2 0 3 1 3t1-1q1 0 2 0t2-1l-2 13q-2 14-1 27t5 24 13 23q9 13 13 19 5 6 6 6t1 1 4 4q4 2 5 1 2-1 2-2h1v1h1v3h-1v1h-1v3h1v1h1l19 19q19 19 20 20 0 1 1 1t15 20q15 19 21 32t10 24q2 12 2 27t-4 29q-4 15-12 32t-23 37q-15 21-28 38t-21 35q-10 18-14 32-4 15-6 29t-2 32 4 35q4 18 4 20v2l1 1v1h-91v-2q0-1 0-18 0-16 0-26 2-10 6-28t10-35 19-39q13-23 30-46 17-24 29-41 12-18 22-38t14-35q4-16 5-34v-18h-2l-1 1-1 1h-1l-1 1q-1 1-3 2l-2 1h-4v-1h1v-1h-1v-1l1-1v-2h1v-1q0-1 4-7 4-7 2-16-2-8-13-27t-31-45-26-38-11-26q-5-15-5-34t3-28l3-10v-2z" fill="#030303" stroke="#030303"/>
  <path d="m453 364l7-14v3h1v1h1v-1q0-1 1-1 1 1 2 2l1 2-7 14q-7 15-7 16v1q-1 1-2 1t-2 0q0 1-1 1t-1-1v-2h-2v-3l1-1q1-2 1-4 0-1 7-14z" fill="#191919" stroke="#191919"/>
  <path d="m93 364l3-1q4 0 4 1 0 2 1 2l3 6q4 7 8 10 4 4 6 4 2 2 9 2h7v7h-10q-6-1-11-3-5-3-9-8-4-4-8-12l-3-8z" fill="#45abd2" stroke="#45abd2"/>
  <path d="m935 308q1 0 1 0t26 2 30 6 5 42q1 37-4 42-5 4-39 5-35 1-40-2-4-3-7-9-3-7-4-8h-1 1v-1h1v-31q2-31 5-36 3-4 6-6t11-2q9-2 9-2zm-16 18l2-4h7q7 0 7 1 1 0 1 0v-1l24 1q24 1 26 4t1 33q-1 29-3 31-2 3-32 3h-30l-1-1-1-1h-1v-1h-1v-5h-2v-28q0-29 3-32z" fill="#b9df98" stroke="#b9df98"/>
  <path d="m402 16q49 0 51 3 3 3 3 47 0 45-3 49-3 3-50 4t-49 0-4-3q-2-3-2-48t2-49q3-3 52-3z" fill="#0e96c7" stroke="#0e96c7"/>
  <path d="m555 102h1l4 2q4 3 7 6 3 2 9 10 5 8 5 9h1v4h-1v-1h-2v-1h-1v1h-2l-1-1-1-1v-1q0-1-2-3 0-1-7-9l-7-7v-1h-1q0-1-1-2l-2-2v-1q0-2 1-2z" fill="#202020" stroke="#202020"/>
  <path d="m606 478h1v1q-1 1-2 4-2 3-3 3-2 1-7 4l-6 4t1-1v-1h1t-1-3v-2l6-3q6-4 7-4 0 0 1-1t2-1z" fill="#2a2a2a" stroke="#2a2a2a"/>
  <path d="m530 269h1v1q-1 1-1 2v2l1 1 1 1 1 1 1 1h1q-1 1-8 8-7 6-17 18-11 11-12 11t-3 3l-2 2t-1 0h-2v-2l-1-1-1-1v-1h-1v1h-1v1h-1v1h-2v-1l1-1v-1h1v-1h2t1-1l15-16q15-17 21-22 5-5 6-6z" fill="#151515" stroke="#151515"/>
  <path d="m723 112q2 0 21 0 18 0 20 1t3 21q1 21 0 22-1 2-24 2t-23-1-1-21q-1-19 1-21 1-3 3-3z" fill="#1397c7" stroke="#1397c7"/>
  <path d="m600 455l1-1h4v1h1v1h1v1h1v1l1 1 1 1v7q0 7-2 9 0 2-1 2h-1q-1 0-2 1v-1q0-2 0-4 0-3-3-8l-3-4v-6h1l1-1z" fill="#1c1c1c" stroke="#1c1c1c"/>
  <path d="m358 301l13-1 3 4q4 4 26 6 22 1 22 6v32q0 26-3 28-2 2-37 3-34 1-37-2-3-2-4-35-1-34 2-37 2-3 15-4z" fill="#0f96c6" stroke="#0f96c6"/>
  <path d="m166 238l50-1 1 7q1 6 2 7t15 2q13 0 15 8 1 8 1 55 0 48-3 54t-7 11q-5 5-8 5-2 2-37 2h-35q0-1-1-10-1-10-2-16-1-5-5-11-4-5-10-9-5-4-24-5l-19-1v-36q1-37 1-41 2-4 5-9 3-6 8-9 4-3 53-3z" fill="#fdfdfd" stroke="#fdfdfd"/>
  <path d="m0 496v-496h1006v993h-1006v-497zm402-480q49 0 51 3 3 3 3 47 0 45-3 49-3 3-50 4t-49 0-4-3q-2-3-2-48t2-49q3-3 52-3zm284 92v51q0 1-2 7t-7 12q-4 6-9 9-6 3-40 5-34 0-35 1l-1 1-2 8q-2 8-2 8v2q0 1-2 6t-9 15l-6 10v1q-1 0-3 2-2 3-16 16l-14 13v1h-1v1h-1v1h-1q-1 1-8 8-7 6-17 18-11 11-12 11t-3 3l-2 2q-1 1-2 3-2 3-12 16l-11 14v1l-1 1-1 1-7 14q-7 15-7 16v1l-2 13q-2 14-1 27t5 24 13 23q9 13 13 19 5 6 6 6t1 1 4 4q4 2 5 1 2-1 2-2h1l5-4q5-5 6-5 2-2 4-2h1t1-1h1l1-1h5q5-2 33-2t31-1h3l6-3q6-4 7-4 0 0 1-1v-1q0-2 0-4 0-3-3-8l-3-4v-6h1l1-1 1-1h4v1h1v1h1v1h1v1l1 1 1 1v7q0 7-2 9 0 2-1 2v1q-1 1-2 4-2 3-3 3-2 1-7 4l-6 4h-1t-2 1q-1 1-36 2l-34 1q-1 0-8 4l-7 2-1 1v2h-1v1h-1v3h1v1h1l19 19q19 19 20 20 0 1 1 1t15 20q15 19 21 32t10 24q2 12 2 27t-4 29q-4 15-12 32t-23 37q-15 21-28 38t-21 35q-10 18-14 32-4 15-6 29t-2 32 4 35q4 18 4 20v2l1 1v1h-91v-2q0-1 0-18 0-16 0-26 2-10 6-28t10-35 19-39q13-23 30-46 17-24 29-41 12-18 22-38t14-35q4-16 5-34v-18h-2l-1 1-1 1h-1l-1 1q-1 1-3 2l-2 1t0 1q-1 1-10 5l-10 5h-1v1h-3l-2 1q-1 1-4 1-2 0-12 1-9 1-18-1t-34-14q-24-11-38-17l-14-7h-4v14q0 15-3 18-2 2-37 3t-38-2q-2-2-3-37-1-34 2-37 2-3 37-3 36 0 38 3 2 2 3 13 1 12 2 12l1 1 14 6q15 5 46 20 30 15 38 17 9 2 19 2h10l8-5q9-5 9-5 0-1 1-1v-1h1v-1q0-1 4-7 4-7 2-16-2-8-13-27t-31-45-26-38-11-26q-5-15-5-34t3-28l3-10v-3l1-1q1-2 1-4 0-1 7-14l7-14v-1h1v-1h1l10-15q10-15 11-15 0 0 1-1 0-1 0-1h1t1-1q0-1 0-1h1t1-1l15-16q15-17 20-21t5-5h1q0-1 1-1 0 0 0-1h2v-1l14-13q14-13 16-15t2-3h1v-1l1-1v-1l7-12q7-12 7-15 2-3 2-3v-2q0-1 1-3v-7h-36v18q-1 18-1 19t-3 4-31 3l-27 1v1h-4v32q-1 31-1 32t-3 4q-3 2-28 4-25 0-26 6l-1 6v26q0 26-3 28-2 2-37 3-34 1-37-2-3-2-4-35-1-34 2-37 2-3 15-4l13-1 1-44q0-45 3-48 3-2 5-4 2 0 32-1 29-1 30-1v-29q0-29 2-31 0-2 5-5t10-10q5-8 7-10l2-2q0-1 0-1h1l3-3q4-3 5-5t8-6 9-6q3 0 4-1h3q0-1 1-1h2l8-2q8-2 10-19 0-17 5-26t12-13 65-4q57 0 63 3t11 10q4 7 6 12t2 55zm-200-72q19 0 22 1 2 1 3 22t0 22-23 1-23 0q-1-1-1-22t1-22q1-2 21-2zm-234 14q36 0 38 2 3 2 6 11 4 8 4 57 0 48-2 54-2 5-6 10-4 4-38 5-35 1-38-3-4-2-7-10t-4-54q-1-47 1-52 0-4 4-12 4-7 6-8 1 0 36 0zm471 62q2 0 21 0 18 0 20 1t3 21q1 21 0 22-1 2-24 2t-23-1-1-21q-1-19 1-21 1-3 3-3zm130 29q34-1 37 3 4 3 4 45t-3 45q-2 2-37 3-34 1-37-3-3-3-3-45t2-45 37-3zm-653 254h-30v1h-11v31q-1 31-1 34t-4 11-11 12q-6 4-57 5-52 1-57-1t-9-5-7-9q-3-5-3-61t4-62 9-9q5-4 37-5l32-1v-36q0-35 2-42t7-13q4-7 9-10t56-4l50-1 1-12q1-11 2-12 1 0 23 0 21 0 22 1 0 1 0 23 0 21-5 23-5 1-4 5t1 56q0 53-4 61t-9 12q-5 5-9 6t-34 2zm530-176q34-1 37 1t7 8q4 5 4 36t-1 36q-1 4-6 8-4 4-39 5t-38-1q-4-2-7-7-3-4-3-11-2-7-2-27t2-29 6-14q5-4 40-5zm205 79v10q1 0 1 0t26 2 30 6 5 42q1 37-4 42-5 4-39 5-35 1-40-2-4-3-7-9-3-7-4-8h-1l-34-1q-35-1-38-4-4-3-4-49 0-45 3-48 2-2 3-4 2 0 49 0t49 1q1 1 3 4 1 3 2 13zm-311 86h-1v1h-1v1h-1l-1 1-1 1h-2v1h-1q0 1-1 1t-2 18-3 22q-4 3-11 6-7 4-53 4-47 0-56-2-10-4-14-7-4-4-4-37 0-34 0-36 2-1 4-4 2-2 9-5t27-4l21-1v-10l1-12q0-12 4-18 3-6 6-8t38-1q36 1 40 5t6 8 1 36q-1 31-3 35-2 5-2 5zm62-18q42 0 46 2 4 3 4 38 0 34-3 37t-45 3-45-2-3-37 2-38q3-3 44-3zm-387 158h-29v29q0 29-4 33-3 4-50 5t-50-1-4-4q0-1 0-47t3-49q3-4 43-4l39-1v-2l1-19q0-20 3-25t3-7q1-1 5-3 4-1 37-1 34 0 38 4 4 3 7 9t2 37q-1 30-3 35-3 5-6 7t-5 3-30 1zm569-66h6q5 0 10 2 4 2 8 7 4 4 8 11 2 7 3 54 1 48-1 55t-6 12q-3 5-8 8t-60 4q-54 1-56-1-3 0-8-5-6-4-9-11t-4-56q-1-50 1-56 2-5 6-11t9-9q5-2 13-3l7-1h1q1-1 2-8 0-8 3-10 2-2 35-1t35 2q1 2 2 9t2 7q1 1 1 1zm-207 53q34-1 38 1 3 2 7 8 4 5 4 36t0 34q-2 4-5 8-3 5-9 7-5 1-32 1-26 0-30 0-5 0-9-3-3-2-7-8-2-6-2-37t1-34q1-4 6-8 4-4 38-5zm-263 4q2-1 36 0 33 1 35 3 1 2 1 34t-3 34q-2 2-35 1t-35-3q-1-2-1-34t1-33q0-1 1-2z" fill="#fefefe" stroke="#fefefe"/>
  <path d="m466 116l3-2v1q-1 1-1 1 0 1-1 1v1q-1 0-1 0 0 1-1 2l-1 1q0 1-2 5l-2 4-1 1-1 1v3h71l5 1q6 0 9 3t3 4 1 21v46q-1 18-1 19t-3 4-31 3l-27 1h-17q-17-1-18-1t-4-3q-2-3-3-17l-1-14v-29q0-29 2-31 0-2 5-5t10-10q5-8 7-11z" fill="#0e95c6" stroke="#0e95c6"/>
  <path d="m703 264v-25h27l28 1t0 26q0 27-27 28h-28v-3q-1-3 0-27z" fill="#fdfdfc" stroke="#fdfdfc"/>
  <path d="m592 158l1 6q1 6 1 12v8t-4 0q-4 1-4 0v-11q0-9-1-12v-3l1-2q2-2 3-2t2 2 1 2z" fill="#1a1a19" stroke="#1a1a19"/>
  <path d="m252 50q36 0 38 2 3 2 6 11 4 8 4 57 0 48-2 54-2 5-6 10-4 4-38 5-35 1-38-3-4-2-7-10t-4-54q-1-47 1-52 0-4 4-12 4-7 6-8 1 0 36 0zm-27 69v-41h27q28 0 28 40t0 41v1h-55v-1q-1 0 0-40z" fill="#1196c7" stroke="#1196c7"/>
  <path d="m564 237h1l1 1q2 1 3 2 2 0 2 2v2q-1 0-3 2-2 3-16 16l-14 13v1h-1v1h-1v1h-2l-1-1-1-1-1-1-1-1v-2h-1v-1h1v-1h1v-1h1v-1l14-13q14-13 16-15t2-3z" fill="#141414" stroke="#141414"/>
  <path d="m498 93h2v1t1 0v-1h9l10 1v41h-62v-3l1-1 1-1 2-4q2-4 2-5l1-1q1-1 1-2 0 0 1 0v-1q1 0 1-1v-1t1-1l3-3q4-3 5-5t8-6 9-6q3 0 4-1z" fill="#f5f7f7" stroke="#f5f7f7"/>
  <path d="m299 524h-28l-1-1v-11h1v-1h27q28-1 30-3 2-3 3-31t-1-32q-2-3-34-4t-34 2q-2 2-2 22l-1 20h-11v-2h-1l1-19q0-20 3-25t3-7q1-1 5-3 4-1 37-1 34 0 38 4 4 3 7 9t2 37q-1 30-3 35-3 5-6 7t-5 3-30 1z" fill="#40aad3" stroke="#40aad3"/>
  <path d="m780 459l7-1h1q1 0 1 13t-2 13h-2l-3 1q-4 1-5 3-1 3-1 48t2 47q1 3 49 2t50-4q1-4 1-47 0-44-1-45l-1-1v-2h-1l-1-1-1-1h-4q-3 0-3-13v-13h8q5 0 10 2 4 2 8 7 4 4 8 11 2 7 3 54 1 48-1 55t-6 12q-3 5-8 8t-60 4q-54 1-56-1-3 0-8-5-6-4-9-11t-4-56q-1-50 1-56 2-5 6-11t9-9q5-2 13-3z" fill="#39a8d3" stroke="#39a8d3"/>
  <path d="m853 141q34-1 37 3 4 3 4 45t-3 45q-2 2-37 3-34 1-37-3-3-3-3-45t2-45 37-3z" fill="#bae096" stroke="#bae096"/>
  <path d="m533 366l1 2 1 6q1 5 6 10 5 4 7 5 1 1 18 1h16v30h-40q-39 0-39 0-1 0-1-27t15-28 16 1z" fill="#fcfdfc" stroke="#fcfdfc"/>
  <path d="m371 585h1l14 6q15 5 46 20 30 15 38 17 9 2 19 2h10v1h-1v2h2v2h-1v1h-3l-2 1q-1 1-4 1-2 0-12 1-9 1-18-1t-34-14q-24-11-38-17l-14-7h-2t-1-1h-1v-7q0-7 1-7z" fill="#0e0f0f" stroke="#0e0f0f"/>
  <path d="m488 314v-1h1q1 0 1 1t0 2v4h2q1 0 1 0-1 1-2 3-2 3-12 16l-11 14v1l-1 1-1 1-1-1v-1h-2v-1h-1v1h-1v-1h-1v-4h1v-1h1l10-15q10-15 11-15t1 0v-1t1-1q1 0 1 0v-1t1-1q1 0 1 0z" fill="#161616" stroke="#161616"/>
  <path d="m486 36q19 0 22 1 2 1 3 22t0 22-23 1-23 0q-1-1-1-22t1-22q1-2 21-2z" fill="#bae096" stroke="#bae096"/>
  <path d="m663 524q33 0 34 2 1 1 1 32 0 30-1 32-2 2-33 3-32 1-33-1-1 0-3-5t-1-31q1-27 2-30 1-2 34-2z" fill="#fdfdfc" stroke="#fdfdfc"/>
  <path d="m782 485l3-1h2q2 1 3 12 0 11 3 13 3 3 35 2 33-1 35-3 1-2 2-11l1-9v-3h3l3-1h1l1 1 1 1h1v2l1 1q1 1 1 45 0 43-1 47-2 3-50 4t-49-2q-2-2-2-47t1-48q1-2 5-3z" fill="#fcfdfd" stroke="#fcfdfd"/>
  <path d="m528 114v-19h6l1 1 9 4q8 4 9 5h1l2 2q1 1 1 2h1v1l7 7q7 8 7 9 2 2 2 3v1l1 1 1 1 4 13q4 13 5 13v3q1 3 1 12v9q-1 0-2 2v1h-16l-17-1h-3v-1h-1v-19q-1-20-1-21t-3-4-9-3l-5-1v-1h-1v-20z" fill="#fafbfb" stroke="#fafbfb"/>
  <path d="m225 119v-41h27q28 0 28 40t0 41v1h-55v-1q-1 0 0-40z" fill="#fbfdfd" stroke="#fbfdfd"/>
  <path d="m534 366v-2h10q9 0 10 2 0 2 14 3h15v11l-1 10h-16q-17 0-18-1-2-1-7-5-5-5-6-10l-1-6v-2z" fill="#3ca9d2" stroke="#3ca9d2"/>
  <path d="m529 91h1l9 3q9 2 13 5t4 3v1q0 1-1 1l-1 1h-1q-1-1-9-5l-9-4-1-1h-1q0-1-2-1t-3-2q0-1 1-1z" fill="#2e2f2e" stroke="#2e2f2e"/>
  <path d="m681 153v-1h1v4l1 2v1h1l1-1h1v1q0 1-2 7t-7 12q-4 6-9 9-6 3-40 5-34 0-35 1l-1 1v-1q0-1-4-1-3 0-4 2l-1 3v-5h-36v-9h1v1h3l17 1h16v-1q1-2 2-2v2q0 1 4 0 4 0 4 0v-1 1q1 1 34 0 33 0 39-5 5-5 9-11 2-7 3-10t1-4v-1h1z" fill="#bcdf9b" stroke="#bcdf9b"/>
  <path d="m686 108v50h-1l-1 1h-1v-1l-1-2v-4h-1v1h-1v-45q0-44-1-48-1-3-4-10t-8-11q-5-3-63-3t-62 3q-5 3-9 10-3 7-4 23-1 17 0 18l1 1h-1q-1 0-1 1 1 2 3 2t2 1h-5v39h1v1h-9v-41h-20v-2h4l8-2q8-2 10-19 0-17 5-26t12-13 65-4q57 0 63 3t11 10q4 7 6 12t2 55z" fill="#bcde99" stroke="#bcde99"/>
  <path d="m64 364h29l3 8q4 8 8 12 4 5 9 8 5 2 11 3h5q0 1 3 1 2 0 2 30 0 31-2 34-2 2-48 3-47 1-49-2-3-3-3-46t1-47 31-4z" fill="#fdfefd" stroke="#fdfefd"/>
  <path d="m624 384h-1v1h-1v1h-1l-1 1-1 1h-2v1h-3v-14q0-14-2-18l-2-4v-38h-1v-1h-55v1l-1 15v14h-19v-5q0-5-1-5l1-12q0-12 4-18 3-6 6-8t38-1q36 1 40 5t6 8 1 36q-1 31-3 35-2 5-2 5z" fill="#3ba8d2" stroke="#3ba8d2"/>
  <path d="m935 298v10t-9 2q-8 0-11 2t-6 6q-3 5-5 36v31h-1v1h-1l-34-1q-35-1-38-4-4-3-4-49 0-45 3-48 2-2 3-4 2 0 49 0t49 1q1 1 3 4 1 3 2 13z" fill="#0f96c6" stroke="#0f96c6"/>
  <path d="m298 511h-28v-7q0-8-2-11t-5-5l-4-3 1-20q0-20 2-22 2-3 34-2t34 4q2 4 1 32t-3 31q-2 2-30 3z" fill="#fcfdfd" stroke="#fcfdfd"/>
  <path d="m868 458h-2v13q0 13 3 13h3l-3 1h-3v3l-1 9q-1 9-2 11-2 2-35 3-32 1-35-2-3-2-3-13-1-11-3-12h-2 2q2 0 2-13t-1-13h-1 1q1-1 2-8 0-8 3-10 2-2 35-1t35 2q1 2 2 9t2 7q1 1 1 1z" fill="#bae096" stroke="#bae096"/>
  <path d="m533 339v-5q1 0 1 5v5h20l20 2q20 0 26 4 7 2 8 3h2l2 4q2 4 2 18v14h2q0 1-1 1t-2 18-3 22q-4 3-11 6-7 4-53 4-47 0-56-2-10-4-14-7-4-4-4-37 0-34 0-36 2-1 4-4 2-2 9-5t27-4l21-1v-5zm0 27l1 2v-4h10q9 0 10 2 0 2 14 3h15v11l-1 10v30h-40q-39 0-39 0-1 0-1-27t15-28 16 1z" fill="#bbe098" stroke="#bbe098"/>
  <path d="m686 366q42 0 46 2 4 3 4 38 0 34-3 37t-45 3-45-2-3-37 2-38q3-3 44-3z" fill="#0f96c7" stroke="#0f96c7"/>
  <path d="m592 193v1l-2 8q-2 8-2 8-1 0-2 0 0 0-1-1t-1-3-1-2l-1-1v-1q0-1 1-3v-2l1-3q1-2 4-2 4 0 4 1z" fill="#1c1d1b" stroke="#1c1d1b"/>
 </g>
</svg>
