<?xml version="1.0" encoding="UTF-8"?>
<svg viewBox="0 0 1024 768" xmlns="http://www.w3.org/2000/svg">
 <g fill="#351500" fill-rule="evenodd">
  <path d="m476.54 755.52l17.864 7.7967c22.112-61.002 27.814-128.33 16.54-192.11-11.286-63.775-39.484-123.63-80.195-170.87-13.19-15.362-28.097-29.672-45.675-39.42-17.602-9.7838-38.2-14.413-57.702-9.9985-18.249 4.2288-34.285 16.186-45.669 31.611-11.377 15.414-18.361 34.015-21.992 53.046-4.4151 23.093-4.0649 47.139 0.95773 69.929-4.3842-22.941-4.034-46.836 0.95786-69.474 4.1197-18.648 11.467-36.62 22.846-51.066 11.366-14.427 26.932-25.288 43.912-28.573 18.121-3.6107 37.183 1.5077 53.438 11.088 16.289 9.6207 30.039 23.777 42.496 39.067 38.293 47.185 63.802 105.96 72.87 167.24 9.0798 61.279 1.7338 125.12-20.648 181.73z"/>
  <path d="m502.96 762.28l19.279 0.45c0.37897-51.253 0.81531-102.51 1.3107-153.76 0.32135-32.65 0.60449-65.58-1.7059-98.526-2.2793-32.712-7.2922-65.526-17.393-96.746-7.8466-24.328-19.068-47.858-35.205-67.267-16.153-19.442-37.635-34.312-61.515-39.364-15.552-3.213-31.292-2.2528-46.58-0.59296-15.286 1.6264-30.393 3.9014-45.449 3.3338-26.13-0.98883-52.635-11-71.305-30.901-15.158-16.13-24.691-38.458-26.127-61.564 0.84485 23.14 9.8134 45.979 24.859 62.901 18.555 20.838 45.431 32.064 72.383 33.82 15.493 1.0143 30.902-0.81403 46.086-1.9953 15.184-1.1494 30.421-1.6772 44.808 1.8203 22.101 5.2528 41.772 19.911 56.492 38.488 14.744 18.622 24.721 41.294 31.727 64.839 8.9745 30.261 12.949 62.114 14.4 94.081 1.4493 32.218 0.32288 64.657-0.81976 97.275-1.8046 51.234-3.5532 102.47-5.2443 153.71v-0.001587z"/>
  <path d="m502.06 758.78l18.928 3.9476c25.053-148.2 17.572-302.13-21.318-445.95-5.4655-20.316-11.752-40.852-21.772-59.587-10.011-18.774-24.27-35.582-42.534-45.294-13.7-7.1733-28.624-9.9936-43.128-12.42-14.492-2.4785-28.979-4.7091-42.129-10.76-20.609-9.4134-37.409-28.273-46.079-50.763-5.9904-15.539-8.2447-32.797-6.4342-49.611 1.8106-16.814 7.6859-33.171 16.938-47.008-9.5657 13.588-15.873 29.872-18.096 46.848-2.2219 16.976-0.35382 34.604 5.4242 50.701 8.3671 23.32 25.21 43.296 46.623 53.789 13.663 6.6502 28.498 9.4038 42.897 12.208 14.382 2.8569 28.749 5.8982 41.192 12.941 16.677 9.2877 29.532 25.456 38.674 43.374 9.1381 17.965 14.686 37.956 19.686 58.183 35.232 143.32 38.953 295.09 11.129 439.4z"/>
  <path d="m521.03 761.78h19.282l-9.6411-751.78-9.6411 751.78z"/>
  <path d="m567.91 763.31l17.864-7.7967c-22.381-56.612-29.728-120.45-20.648-181.73 9.0687-61.281 34.577-120.06 72.87-167.24 12.457-15.29 26.207-29.447 42.496-39.067 16.255-9.5799 35.317-14.698 53.438-11.088 16.98 3.2857 32.546 14.146 43.912 28.573 11.378 14.446 18.726 32.418 22.846 51.066 4.9919 22.638 5.342 46.533 0.95789 69.474 5.0226-22.789 5.3729-46.836 0.9577-69.929-3.631-19.031-10.616-37.632-21.992-53.046-11.384-15.425-27.42-27.382-45.669-31.611-19.502-4.4145-40.1 0.21469-57.702 9.9985-17.578 9.7484-32.484 24.058-45.675 39.42-40.711 47.237-68.91 107.09-80.195 170.87-11.274 63.777-5.5724 131.11 16.54 192.11z"/>
  <path d="m464.62 765.49s22.596-8.7127 29.549-65.968c6.9528-57.255 9.8497-72.191 9.8497-72.191l54.463-1.2447s3.4764 99.574 19.699 119.49l16.223 19.915h-129.78z"/>
  <path d="m540.07 762.73l19.277-0.45c-1.6911-51.238-3.4382-102.48-5.2443-153.71-1.1411-32.618-2.269-65.057-0.81964-97.275 1.4507-31.967 5.4257-63.82 14.4-94.081 7.0063-23.545 16.985-46.218 31.727-64.839 14.722-18.577 34.391-33.235 56.492-38.488 14.387-3.4976 29.625-2.9697 44.808-1.8219 15.185 1.1828 30.595 3.0111 46.087 1.9969 26.952-1.7567 53.828-12.984 72.383-33.82 15.044-16.922 24.013-39.762 24.859-62.901-1.4374 23.106-10.969 45.434-26.127 61.564-18.672 19.901-45.176 29.912-71.307 30.901-15.055 0.56601-30.163-1.7074-45.449-3.3338-15.288-1.6598-31.028-2.6201-46.58 0.59296-23.879 5.0525-45.361 19.922-61.514 39.364-16.138 19.408-27.358 42.94-35.206 67.267-10.1 31.219-15.114 64.033-17.393 96.746-2.3089 32.946-2.0273 65.876-1.7044 98.526 0.4939 51.254 0.93024 102.51 1.3107 153.76z"/>
  <path d="m541.32 762.72l18.929-3.9479c-27.825-144.31-24.103-296.08 11.128-439.4 4.9999-20.228 10.548-40.218 19.686-58.183 9.1429-17.918 21.998-34.086 38.675-43.374 12.444-7.0431 26.81-10.084 41.193-12.94 14.398-2.8048 29.233-5.5579 42.896-12.208 21.412-10.493 38.256-30.47 46.623-53.789 5.7768-16.097 7.6453-33.725 5.4232-50.701-2.223-16.976-8.5308-33.26-18.096-46.848 9.2514 13.836 15.127 30.193 16.937 47.008 1.811 16.814-0.44397 34.072-6.4337 49.611-8.6709 22.49-25.47 41.35-46.079 50.763-13.15 6.0501-27.638 8.2814-42.128 10.76-14.506 2.426-29.429 5.2462-43.13 12.42-18.264 9.7125-32.522 26.52-42.533 45.294v2.44e-4c-10.02 18.733-16.307 39.27-21.772 59.586-38.889 143.82-46.37 297.75-21.318 445.95z"/>
 </g>
 <path d="m254.21 448.8s-25.725 8.0248-35.166 21.678c-9.4408 13.653-15.287 46.983-15.287 46.983s21.145-7.0593 31.116-19.282c9.9716-12.223 19.282-48.692 19.336-49.378z" fill="#5aa02c" stroke="#17280b" stroke-width="1.43"/>
 <path d="m256.33 441.6l2.0152 1.1786c-6.7136 12.766-14.345 24.955-22.798 36.423-6.7573 9.1668-14.039 17.873-21.787 26.054 7.5062-8.4368 14.516-17.367 20.978-26.721 8.0834-11.7 15.308-24.063 21.592-36.935z" fill="#17280b" fill-rule="evenodd"/>
 <path d="m373.68 368.26s-3.584-1.2304-20.191 3.5318c-25.304 7.2556-26.691 51.907-26.691 51.907s41.736-14.099 44.222-33.185c2.1566-16.552 3.6519-22.348 2.6605-22.254z" fill="#5aa02c" stroke="#17280b" stroke-width="1.434"/>
 <path d="m374.28 359.9l3.5562 1.3424c-4.2342 11.76-10.588 22.544-18.552 31.597-5.7947 6.5866-12.434 12.258-19.643 16.809 6.927-5.0313 13.157-11.097 18.456-17.94 7.2828-9.4046 12.8-20.288 16.183-31.808z" fill="#17280b" fill-rule="evenodd"/>
 <path d="m294.05 358.86s-21.665-23.015-51.097-11.065-43.862 28.387-43.862 28.387 30.501 8.4074 50.419 5.0241c19.918-3.3832 45.596-21.277 44.541-22.346z" fill="#5aa02c" stroke="#17280b" stroke-width="1.434"/>
 <path d="m309.7 359.23l-0.5032 2.7287c-14.706-3.3681-29.865-4.6092-44.934-3.6624-14.718 0.9249-29.35 3.9364-43.395 8.9472 13.905-5.4434 28.503-8.9274 43.302-10.318 15.152-1.4239 30.511-0.65222 45.531 2.3044z" fill="#17280b" fill-rule="evenodd"/>
 <path d="m358.95 299.57s-0.69122-23.76-12.443-39.352c-11.751-15.592-51.153-16.335-51.153-16.335s23.503 40.094 40.093 49.004c16.977 9.1175 24.885 6.6822 23.503 6.6822z" fill="#5aa02c" stroke="#17280b" stroke-width="1.434"/>
 <path d="m363.36 305.4l-3.3601 1.6693c-3.1552-7.8346-7.102-15.326-11.76-22.299-6.4283-9.6152-14.235-18.267-23.425-24.93-4.6826-3.3958-9.7117-6.2686-14.98-8.5501 5.3667 1.9985 10.551 4.6105 15.435 7.7854 9.5834 6.2337 17.95 14.598 24.964 24.075 5.0851 6.8664 9.495 14.337 13.125 22.25z" fill="#17280b" fill-rule="evenodd"/>
 <path d="m457.28 355.24s-18.965 20.146-44.727 9.6869c-25.763-10.461-38.394-24.849-38.394-24.849s26.698-7.3593 44.132-4.3975 39.911 18.625 38.988 19.56z" fill="#5aa02c" stroke="#17280b" stroke-width="1.434"/>
 <path d="m470.98 354.92l-0.4404-2.3886c-12.872 2.9482-26.142 4.0346-39.332 3.2056-12.883-0.80939-25.691-3.4456-37.985-7.8317 12.171 4.7647 24.949 7.8145 37.903 9.0318 13.264 1.2462 26.708 0.57065 39.854-2.0171z" fill="#17280b" fill-rule="evenodd"/>
 <path d="m242.55 288.69s-20.954 17.726-45.458 4.2188c-24.503-13.507-35.547-29.33-35.547-29.33s27.3-4.086 44.313 0.96374c17.014 5.0497 37.707 23.33 36.691 24.148z" fill="#5aa02c" stroke="#17280b" stroke-width="1.434"/>
 <path d="m256.2 290.03l-0.1873-2.4261c-13.1 1.3737-26.399 0.849-39.419-1.5675-12.716-2.3625-25.166-6.5294-36.923-12.374 11.594 6.2051 23.972 10.78 36.716 13.555 13.048 2.8426 26.478 3.7949 39.813 2.8124z" fill="#17280b" fill-rule="evenodd"/>
 <path d="m401.18 192.85s10.81-28.703-9.6281-51.947-39.056-30.785-39.056-30.785 4.2824 31.665 14.291 49.109c10.008 17.444 33.91 35.002 34.394 33.623z" fill="#5aa02c" stroke="#17280b" stroke-width="1.434"/>
 <path d="m406.58 207.66l-2.4012 0.5226c-2.6217-15.017-7.1374-29.684-13.399-43.47-6.1154-13.464-13.896-26.088-23.087-37.431 9.4916 11.055 17.643 23.474 24.167 36.844 6.6793 13.69 11.649 28.373 14.72 43.534z" fill="#17280b" fill-rule="evenodd"/>
 <path d="m306.93 160.12s-21.976 3.3229-38.326-6.4876c-16.351-9.8106-23.761-51.504-23.761-51.504s40.899 18.1 51.928 34.187c11.286 16.463 10.397 25.272 10.16 23.804z" fill="#5aa02c" stroke="#17280b" stroke-width="1.434"/>
 <path d="m313.04 163.8l0.9626-3.8515c-7.7458-2.0102-15.312-4.9212-22.522-8.6746-9.9428-5.181-19.236-11.989-26.934-20.605-3.9236-4.3902-7.4253-9.2379-10.423-14.44 2.7539 5.355 6.0422 10.411 9.7975 15.053 7.3709 9.108 16.494 16.56 26.409 22.386 7.1852 4.2252 14.811 7.631 22.71 10.132z" fill="#17280b" fill-rule="evenodd"/>
 <path d="m464.39 259.25s-1.9904-3.5072-17.695-11.727c-23.931-12.521-52.671 20.778-52.671 20.778s40.79 19.016 54.53 6.1367c11.914-11.17 16.656-14.552 15.836-15.188z" fill="#5aa02c" stroke="#17280b" stroke-width="1.434"/>
 <path d="m470.03 253.25l1.8983 3.5739c-10.54 6.0038-22.103 9.7424-33.831 11-8.533 0.91473-17.146 0.52289-25.504-1.1374 8.4383 1.0893 16.982 0.88544 25.293-0.58075 11.422-2.0149 22.404-6.4284 32.143-12.856z" fill="#17280b" fill-rule="evenodd"/>
 <path d="m536.74 141.54s3.5867 2.8142 23.841 4.1346c30.861 2.012 47.922-47.443 47.922-47.443s-51.641-0.93079-61.055 19.45c-8.1639 17.675-11.851 23.567-10.708 23.859z" fill="#5aa02c" stroke="#17280b" stroke-width="1.434"/>
 <path d="m533.16 150.67l-3.5165-2.9286c8.8265-11.475 19.687-21.008 31.752-27.956 8.778-5.0556 18.183-8.7474 27.838-10.956-9.5057 2.8597-18.59 7.1576-26.901 12.699-11.423 7.6154-21.382 17.595-29.172 29.142z" fill="#17280b" fill-rule="evenodd"/>
 <path d="m518.21 206.96s-28.278-1.0762-39.497-30.056c-11.219-28.978-10.061-49.921-10.061-49.921s24.71 16.794 35.263 33.41c10.552 16.616 15.64 46.653 14.296 46.567z" fill="#5aa02c" stroke="#17280b" stroke-width="1.434"/>
 <path d="m528.4 218.09l1.3962-2.1034c-11.482-8.5326-21.915-18.749-30.913-30.294-8.7888-11.275-16.209-23.816-21.998-37.205 5.4272 13.562 12.529 26.38 21.075 38.011 8.7519 11.908 19.016 22.569 30.44 31.592z" fill="#17280b" fill-rule="evenodd"/>
 <path d="m528.14 87.682s-0.69128-23.759-12.442-39.352c-11.751-15.592-51.153-16.335-51.153-16.335s23.503 40.094 40.093 49.004c16.977 9.1176 24.885 6.6822 23.502 6.6822z" fill="#5aa02c" stroke="#17280b" stroke-width="1.434"/>
 <path d="m532.55 93.508l-3.3602 1.67c-3.1543-7.8344-7.102-15.327-11.76-22.299-6.4281-9.6149-14.234-18.268-23.424-24.93-4.6826-3.3959-9.712-6.269-14.98-8.5494 5.3667 1.9973 10.551 4.6097 15.435 7.7853 9.5839 6.2334 17.951 14.597 24.964 24.074v1.75e-4c5.0854 6.8666 9.496 14.338 13.125 22.25z" fill="#17280b" fill-rule="evenodd"/>
 <path d="m254.21 448.8s-25.725 8.0248-35.166 21.678c-9.4408 13.653-15.287 46.983-15.287 46.983s21.145-7.0593 31.116-19.282c9.9716-12.223 19.282-48.692 19.336-49.378z" fill="#5aa02c" stroke="#17280b" stroke-width="1.43"/>
 <path d="m256.33 441.6l2.0152 1.1786c-6.7136 12.766-14.345 24.955-22.798 36.423-6.7573 9.1668-14.039 17.873-21.787 26.054 7.5062-8.4368 14.516-17.367 20.978-26.721 8.0834-11.7 15.308-24.063 21.592-36.935z" fill="#17280b" fill-rule="evenodd"/>
 <path d="m373.68 368.26s-3.584-1.2304-20.191 3.5318c-25.304 7.2556-26.691 51.907-26.691 51.907s41.736-14.099 44.222-33.185c2.1566-16.552 3.6519-22.348 2.6605-22.254z" fill="#5aa02c" stroke="#17280b" stroke-width="1.434"/>
 <path d="m374.28 359.9l3.5562 1.3424c-4.2342 11.76-10.588 22.544-18.552 31.597-5.7947 6.5866-12.434 12.258-19.643 16.809 6.927-5.0313 13.157-11.097 18.456-17.94 7.2828-9.4046 12.8-20.288 16.183-31.808z" fill="#17280b" fill-rule="evenodd"/>
 <path d="m294.05 358.86s-21.665-23.015-51.097-11.065-43.862 28.387-43.862 28.387 30.501 8.4074 50.419 5.0241c19.918-3.3832 45.596-21.277 44.541-22.346z" fill="#5aa02c" stroke="#17280b" stroke-width="1.434"/>
 <path d="m309.7 359.23l-0.5032 2.7287c-14.706-3.3681-29.865-4.6092-44.934-3.6624-14.718 0.9249-29.35 3.9364-43.395 8.9472 13.905-5.4434 28.503-8.9274 43.302-10.318 15.152-1.4239 30.511-0.65222 45.531 2.3044z" fill="#17280b" fill-rule="evenodd"/>
 <path d="m358.95 299.57s-0.69122-23.76-12.443-39.352c-11.751-15.592-51.153-16.335-51.153-16.335s23.503 40.094 40.093 49.004c16.977 9.1175 24.885 6.6822 23.503 6.6822z" fill="#5aa02c" stroke="#17280b" stroke-width="1.434"/>
 <path d="m363.36 305.4l-3.3601 1.6693c-3.1552-7.8346-7.102-15.326-11.76-22.299-6.4283-9.6152-14.235-18.267-23.425-24.93-4.6826-3.3958-9.7117-6.2686-14.98-8.5501 5.3667 1.9985 10.551 4.6105 15.435 7.7854 9.5834 6.2337 17.95 14.598 24.964 24.075 5.0851 6.8664 9.495 14.337 13.125 22.25z" fill="#17280b" fill-rule="evenodd"/>
 <path d="m457.28 355.24s-18.965 20.146-44.727 9.6869c-25.763-10.461-38.394-24.849-38.394-24.849s26.698-7.3593 44.132-4.3975 39.911 18.625 38.988 19.56z" fill="#5aa02c" stroke="#17280b" stroke-width="1.434"/>
 <path d="m470.98 354.92l-0.4404-2.3886c-12.872 2.9482-26.142 4.0346-39.332 3.2056-12.883-0.80939-25.691-3.4456-37.985-7.8317 12.171 4.7647 24.949 7.8145 37.903 9.0318 13.264 1.2462 26.708 0.57065 39.854-2.0171z" fill="#17280b" fill-rule="evenodd"/>
 <path d="m242.55 288.69s-20.954 17.726-45.458 4.2188c-24.503-13.507-35.547-29.33-35.547-29.33s27.3-4.086 44.313 0.96374c17.014 5.0497 37.707 23.33 36.691 24.148z" fill="#5aa02c" stroke="#17280b" stroke-width="1.434"/>
 <path d="m256.2 290.03l-0.1873-2.4261c-13.1 1.3737-26.399 0.849-39.419-1.5675-12.716-2.3625-25.166-6.5294-36.923-12.374 11.594 6.2051 23.972 10.78 36.716 13.555 13.048 2.8426 26.478 3.7949 39.813 2.8124z" fill="#17280b" fill-rule="evenodd"/>
 <path d="m401.18 192.85s10.81-28.703-9.6281-51.947-39.056-30.785-39.056-30.785 4.2824 31.665 14.291 49.109c10.008 17.444 33.91 35.002 34.394 33.623z" fill="#5aa02c" stroke="#17280b" stroke-width="1.434"/>
 <path d="m406.58 207.66l-2.4012 0.5226c-2.6217-15.017-7.1374-29.684-13.399-43.47-6.1154-13.464-13.896-26.088-23.087-37.431 9.4916 11.055 17.643 23.474 24.167 36.844 6.6793 13.69 11.649 28.373 14.72 43.534z" fill="#17280b" fill-rule="evenodd"/>
 <path d="m306.93 160.12s-21.976 3.3229-38.326-6.4876c-16.351-9.8106-23.761-51.504-23.761-51.504s40.899 18.1 51.928 34.187c11.286 16.463 10.397 25.272 10.16 23.804z" fill="#5aa02c" stroke="#17280b" stroke-width="1.434"/>
 <path d="m313.04 163.8l0.9626-3.8515c-7.7458-2.0102-15.312-4.9212-22.522-8.6746-9.9428-5.181-19.236-11.989-26.934-20.605-3.9236-4.3902-7.4253-9.2379-10.423-14.44 2.7539 5.355 6.0422 10.411 9.7975 15.053 7.3709 9.108 16.494 16.56 26.409 22.386 7.1852 4.2252 14.811 7.631 22.71 10.132z" fill="#17280b" fill-rule="evenodd"/>
 <path d="m464.39 259.25s-1.9904-3.5072-17.695-11.727c-23.931-12.521-52.671 20.778-52.671 20.778s40.79 19.016 54.53 6.1367c11.914-11.17 16.656-14.552 15.836-15.188z" fill="#5aa02c" stroke="#17280b" stroke-width="1.434"/>
 <path d="m470.03 253.25l1.8983 3.5739c-10.54 6.0038-22.103 9.7424-33.831 11-8.533 0.91473-17.146 0.52289-25.504-1.1374 8.4383 1.0893 16.982 0.88544 25.293-0.58075 11.422-2.0149 22.404-6.4284 32.143-12.856z" fill="#17280b" fill-rule="evenodd"/>
 <path d="m808.6 448.8s25.725 8.0247 35.166 21.678c9.4408 13.653 15.287 46.983 15.287 46.983s-21.145-7.0593-31.116-19.282c-9.9716-12.222-19.282-48.692-19.336-49.378z" fill="#5aa02c" stroke="#17280b" stroke-width="1.43"/>
 <path d="m806.48 441.6l-2.0153 1.1783c6.7136 12.767 14.345 24.956 22.798 36.423 6.7573 9.167 14.039 17.874 21.787 26.054-7.5063-8.4365-14.516-17.367-20.978-26.72-8.0834-11.7-15.308-24.063-21.592-36.935z" fill="#17280b" fill-rule="evenodd"/>
 <path d="m689.13 368.26s3.5839-1.2305 20.191 3.5316c25.304 7.2557 26.692 51.907 26.692 51.907s-41.735-14.099-44.222-33.185c-2.1566-16.552-3.6518-22.348-2.6605-22.254z" fill="#5aa02c" stroke="#17280b" stroke-width="1.434"/>
 <path d="m688.53 359.9l-3.556 1.3427c4.2341 11.76 10.588 22.544 18.552 31.597 5.7949 6.5868 12.434 12.258 19.643 16.808-6.9268-5.0311-13.156-11.097-18.455-17.94-7.2828-9.4047-12.8-20.288-16.184-31.808z" fill="#17280b" fill-rule="evenodd"/>
 <path d="m768.76 358.86s21.664-23.016 51.096-11.065c29.433 11.949 43.863 28.386 43.863 28.386s-30.5 8.4069-50.419 5.0238c-19.917-3.3831-45.595-21.277-44.539-22.345z" fill="#5aa02c" stroke="#17280b" stroke-width="1.434"/>
 <path d="m753.11 359.23l0.5034 2.7287c14.706-3.3682 29.865-4.6093 44.934-3.6624 14.718 0.92484 29.35 3.9364 43.395 8.9472-13.904-5.4434-28.503-8.9274-43.302-10.318-15.152-1.4236-30.511-0.65204-45.531 2.3045z" fill="#17280b" fill-rule="evenodd"/>
 <path d="m703.85 299.57s0.69134-23.76 12.442-39.352 51.153-16.335 51.153-16.335-23.503 40.094-40.093 49.004c-16.977 9.1175-24.885 6.6822-23.503 6.6822z" fill="#5aa02c" stroke="#17280b" stroke-width="1.434"/>
 <path d="m699.44 305.4l3.3602 1.6693c3.1536-7.8346 7.102-15.326 11.76-22.299 6.4284-9.6152 14.235-18.267 23.425-24.93 4.6827-3.3958 9.7118-6.2686 14.98-8.5501-5.3668 1.9985-10.551 4.6105-15.435 7.7854-9.5836 6.2337-17.951 14.598-24.964 24.075-5.0851 6.8664-9.4949 14.337-13.125 22.25z" fill="#17280b" fill-rule="evenodd"/>
 <path d="m605.53 355.24s18.964 20.146 44.727 9.6856 38.394-24.847 38.394-24.847-26.698-7.3595-44.133-4.3979c-17.434 2.9614-39.911 18.624-38.988 19.56z" fill="#5aa02c" stroke="#17280b" stroke-width="1.434"/>
 <path d="m591.83 354.92l0.4404-2.3885c12.872 2.9482 26.142 4.0346 39.332 3.2057 12.883-0.80948 25.691-3.4457 37.985-7.8318-12.171 4.7648-24.95 7.8144-37.903 9.0317-13.264 1.2463-26.708 0.57077-39.854-2.0172z" fill="#17280b" fill-rule="evenodd"/>
 <path d="m820.26 288.69s20.954 17.726 45.457 4.2187c24.504-13.507 35.547-29.33 35.547-29.33s-27.3-4.0861-44.314 0.96368c-17.014 5.0496-37.707 23.329-36.691 24.147z" fill="#5aa02c" stroke="#17280b" stroke-width="1.434"/>
 <path d="m806.61 290.03l0.1875-2.4266c13.099 1.3738 26.398 0.84964 39.418-1.5681 12.717-2.3614 25.167-6.5288 36.924-12.373-11.595 6.2056-23.973 10.78-36.717 13.555-13.049 2.8414-26.478 3.795-39.813 2.8123z" fill="#17280b" fill-rule="evenodd"/>
 <path d="m661.63 192.85s-10.81-28.703 9.628-51.947 39.057-30.785 39.057-30.785-4.2823 31.665-14.291 49.109c-10.008 17.444-33.91 35.002-34.394 33.623z" fill="#5aa02c" stroke="#17280b" stroke-width="1.434"/>
 <path d="m656.23 207.66l2.4012 0.5226c2.6217-15.017 7.1375-29.684 13.399-43.47 6.1155-13.464 13.896-26.088 23.086-37.431-9.4914 11.054-17.643 23.474-24.167 36.844-6.6791 13.69-11.649 28.373-14.72 43.534z" fill="#17280b" fill-rule="evenodd"/>
 <path d="m755.88 160.12s21.976 3.3229 38.326-6.4875c16.35-9.8105 23.761-51.504 23.761-51.504s-40.898 18.1-51.927 34.187c-11.287 16.463-10.396 25.272-10.16 23.804z" fill="#5aa02c" stroke="#17280b" stroke-width="1.434"/>
 <path d="m749.76 163.8l-0.9625-3.8515c7.7458-2.0102 15.313-4.9212 22.522-8.6744 9.9428-5.1812 19.236-11.989 26.934-20.605 3.9237-4.3902 7.4255-9.238 10.423-14.44-2.7537 5.3551-6.042 10.411-9.7975 15.053-7.3707 9.1079-16.494 16.56-26.409 22.386v-4.6e-5c-7.1852 4.225-14.811 7.631-22.71 10.132z" fill="#17280b" fill-rule="evenodd"/>
 <path d="m598.42 259.25s1.9897-3.5077 17.696-11.726c23.93-12.522 52.67 20.778 52.67 20.778s-40.791 19.016-54.53 6.1365c-11.915-11.17-16.656-14.552-15.836-15.188z" fill="#5aa02c" stroke="#17280b" stroke-width="1.434"/>
 <path d="m592.77 253.25l-1.8988 3.5739c10.541 6.0039 22.104 9.7425 33.831 11 8.5328 0.91486 17.146 0.52295 25.503-1.1374-8.4381 1.0892-16.982 0.88544-25.293-0.58084-11.422-2.0149-22.404-6.4284-32.143-12.856z" fill="#17280b" fill-rule="evenodd"/>
 <path d="m808.6 448.8s25.725 8.0247 35.166 21.678c9.4408 13.653 15.287 46.983 15.287 46.983s-21.145-7.0593-31.116-19.282c-9.9716-12.222-19.282-48.692-19.336-49.378z" fill="#5aa02c" stroke="#17280b" stroke-width="1.43"/>
 <path d="m806.48 441.6l-2.0153 1.1783c6.7136 12.767 14.345 24.956 22.798 36.423 6.7573 9.167 14.039 17.874 21.787 26.054-7.5063-8.4365-14.516-17.367-20.978-26.72-8.0834-11.7-15.308-24.063-21.592-36.935z" fill="#17280b" fill-rule="evenodd"/>
 <path d="m689.13 368.26s3.5839-1.2305 20.191 3.5316c25.304 7.2557 26.692 51.907 26.692 51.907s-41.735-14.099-44.222-33.185c-2.1566-16.552-3.6518-22.348-2.6605-22.254z" fill="#5aa02c" stroke="#17280b" stroke-width="1.434"/>
 <path d="m688.53 359.9l-3.556 1.3427c4.2341 11.76 10.588 22.544 18.552 31.597 5.7949 6.5868 12.434 12.258 19.643 16.808-6.9268-5.0311-13.156-11.097-18.455-17.94-7.2828-9.4047-12.8-20.288-16.184-31.808z" fill="#17280b" fill-rule="evenodd"/>
 <path d="m768.76 358.86s21.664-23.016 51.096-11.065c29.433 11.949 43.863 28.386 43.863 28.386s-30.5 8.4069-50.419 5.0238c-19.917-3.3831-45.595-21.277-44.539-22.345z" fill="#5aa02c" stroke="#17280b" stroke-width="1.434"/>
 <path d="m753.11 359.23l0.5034 2.7287c14.706-3.3682 29.865-4.6093 44.934-3.6624 14.718 0.92484 29.35 3.9364 43.395 8.9472-13.904-5.4434-28.503-8.9274-43.302-10.318-15.152-1.4236-30.511-0.65204-45.531 2.3045z" fill="#17280b" fill-rule="evenodd"/>
 <path d="m703.85 299.57s0.69134-23.76 12.442-39.352 51.153-16.335 51.153-16.335-23.503 40.094-40.093 49.004c-16.977 9.1175-24.885 6.6822-23.503 6.6822z" fill="#5aa02c" stroke="#17280b" stroke-width="1.434"/>
 <path d="m699.44 305.4l3.3602 1.6693c3.1536-7.8346 7.102-15.326 11.76-22.299 6.4284-9.6152 14.235-18.267 23.425-24.93 4.6827-3.3958 9.7118-6.2686 14.98-8.5501-5.3668 1.9985-10.551 4.6105-15.435 7.7854-9.5836 6.2337-17.951 14.598-24.964 24.075-5.0851 6.8664-9.4949 14.337-13.125 22.25z" fill="#17280b" fill-rule="evenodd"/>
 <path d="m605.53 355.24s18.964 20.146 44.727 9.6856 38.394-24.847 38.394-24.847-26.698-7.3595-44.133-4.3979c-17.434 2.9614-39.911 18.624-38.988 19.56z" fill="#5aa02c" stroke="#17280b" stroke-width="1.434"/>
 <path d="m591.83 354.92l0.4404-2.3885c12.872 2.9482 26.142 4.0346 39.332 3.2057 12.883-0.80948 25.691-3.4457 37.985-7.8318-12.171 4.7648-24.95 7.8144-37.903 9.0317-13.264 1.2463-26.708 0.57077-39.854-2.0172z" fill="#17280b" fill-rule="evenodd"/>
 <path d="m820.26 288.69s20.954 17.726 45.457 4.2187c24.504-13.507 35.547-29.33 35.547-29.33s-27.3-4.0861-44.314 0.96368c-17.014 5.0496-37.707 23.329-36.691 24.147z" fill="#5aa02c" stroke="#17280b" stroke-width="1.434"/>
 <path d="m806.61 290.03l0.1875-2.4266c13.099 1.3738 26.398 0.84964 39.418-1.5681 12.717-2.3614 25.167-6.5288 36.924-12.373-11.595 6.2056-23.973 10.78-36.717 13.555-13.049 2.8414-26.478 3.795-39.813 2.8123z" fill="#17280b" fill-rule="evenodd"/>
 <path d="m661.63 192.85s-10.81-28.703 9.628-51.947 39.057-30.785 39.057-30.785-4.2823 31.665-14.291 49.109c-10.008 17.444-33.91 35.002-34.394 33.623z" fill="#5aa02c" stroke="#17280b" stroke-width="1.434"/>
 <path d="m656.23 207.66l2.4012 0.5226c2.6217-15.017 7.1375-29.684 13.399-43.47 6.1155-13.464 13.896-26.088 23.086-37.431-9.4914 11.054-17.643 23.474-24.167 36.844-6.6791 13.69-11.649 28.373-14.72 43.534z" fill="#17280b" fill-rule="evenodd"/>
 <path d="m755.88 160.12s21.976 3.3229 38.326-6.4875c16.35-9.8105 23.761-51.504 23.761-51.504s-40.898 18.1-51.927 34.187c-11.287 16.463-10.396 25.272-10.16 23.804z" fill="#5aa02c" stroke="#17280b" stroke-width="1.434"/>
 <path d="m749.76 163.8l-0.9625-3.8515c7.7458-2.0102 15.313-4.9212 22.522-8.6744 9.9428-5.1812 19.236-11.989 26.934-20.605 3.9237-4.3902 7.4255-9.238 10.423-14.44-2.7537 5.3551-6.042 10.411-9.7975 15.053-7.3707 9.1079-16.494 16.56-26.409 22.386v-4.6e-5c-7.1852 4.225-14.811 7.631-22.71 10.132z" fill="#17280b" fill-rule="evenodd"/>
 <path d="m598.42 259.25s1.9897-3.5077 17.696-11.726c23.93-12.522 52.67 20.778 52.67 20.778s-40.791 19.016-54.53 6.1365c-11.915-11.17-16.656-14.552-15.836-15.188z" fill="#5aa02c" stroke="#17280b" stroke-width="1.434"/>
 <path d="m592.77 253.25l-1.8988 3.5739c10.541 6.0039 22.104 9.7425 33.831 11 8.5328 0.91486 17.146 0.52295 25.503-1.1374-8.4381 1.0892-16.982 0.88544-25.293-0.58084-11.422-2.0149-22.404-6.4284-32.143-12.856z" fill="#17280b" fill-rule="evenodd"/>
 <g stroke="#000">
  <path d="m170 378.46c0-201.67 162-365.03 362-365.03s362 163.35 362 365.03c0 201.67-162 365.03-362 365.03s-362-163.35-362-365.03z" fill="#3f7f00" opacity=".25" stroke-width="0"/>
  <ellipse cx="99" cy="-57" fill="#f00" stroke-width="5"/>
 </g>
</svg>
